<svg width="48" height="48" viewBox="0 0 48 48" fill="none" xmlns="http://www.w3.org/2000/svg">
<path fill-rule="evenodd" clip-rule="evenodd" d="M38 33.5C35.5147 33.5 33.5 35.5147 33.5 38C33.5 40.4853 35.5147 42.5 38 42.5C40.4853 42.5 42.5 40.4853 42.5 38C42.5 35.5147 40.4853 33.5 38 33.5ZM30.5 38C30.5 33.8579 33.8579 30.5 38 30.5C42.1421 30.5 45.5 33.8579 45.5 38C45.5 42.1421 42.1421 45.5 38 45.5C33.8579 45.5 30.5 42.1421 30.5 38Z" fill="#4F7EF7"/>
<g opacity="0.4">
<path fill-rule="evenodd" clip-rule="evenodd" d="M21.5 9C21.5 8.17157 22.1716 7.5 23 7.5H34C37.0284 7.5 39.5 9.97157 39.5 13V32C39.5 32.8284 38.8284 33.5 38 33.5C37.1716 33.5 36.5 32.8284 36.5 32V13C36.5 11.6284 35.3716 10.5 34 10.5H23C22.1716 10.5 21.5 9.82843 21.5 9Z" fill="#4F7EF7"/>
<path fill-rule="evenodd" clip-rule="evenodd" d="M29.1523 3.03973C29.6827 3.67615 29.5967 4.62199 28.9603 5.15234L24.3431 9.00001L28.9603 12.8477C29.5967 13.378 29.6827 14.3239 29.1523 14.9603C28.622 15.5967 27.6761 15.6827 27.0397 15.1523L21.0397 10.1523C20.6977 9.86735 20.5 9.44518 20.5 9.00001C20.5 8.55484 20.6977 8.13267 21.0397 7.84768L27.0397 2.84768C27.6761 2.31733 28.622 2.40332 29.1523 3.03973Z" fill="#4F7EF7"/>
<path fill-rule="evenodd" clip-rule="evenodd" d="M10 14.5C10.8284 14.5 11.5 15.1716 11.5 16V35C11.5 36.3716 12.6284 37.5 14 37.5H25C25.8284 37.5 26.5 38.1716 26.5 39C26.5 39.8284 25.8284 40.5 25 40.5H14C10.9716 40.5 8.5 38.0284 8.5 35V16C8.5 15.1716 9.17157 14.5 10 14.5Z" fill="#4F7EF7"/>
<path fill-rule="evenodd" clip-rule="evenodd" d="M18.8477 33.0397C19.378 32.4033 20.3239 32.3173 20.9603 32.8477L26.9603 37.8477C27.3023 38.1327 27.5 38.5548 27.5 39C27.5 39.4452 27.3023 39.8673 26.9603 40.1523L20.9603 45.1523C20.3239 45.6827 19.378 45.5967 18.8477 44.9603C18.3173 44.3239 18.4033 43.378 19.0397 42.8477L23.6569 39L19.0397 35.1523C18.4033 34.622 18.3173 33.6761 18.8477 33.0397Z" fill="#4F7EF7"/>
</g>
<path fill-rule="evenodd" clip-rule="evenodd" d="M10 5.5C7.51472 5.5 5.5 7.51472 5.5 10C5.5 12.4853 7.51472 14.5 10 14.5C12.4853 14.5 14.5 12.4853 14.5 10C14.5 7.51472 12.4853 5.5 10 5.5ZM2.5 10C2.5 5.85786 5.85786 2.5 10 2.5C14.1421 2.5 17.5 5.85786 17.5 10C17.5 14.1421 14.1421 17.5 10 17.5C5.85786 17.5 2.5 14.1421 2.5 10Z" fill="#4F7EF7"/>
</svg>
