<svg width="48" height="48" viewBox="0 0 48 48" fill="none" xmlns="http://www.w3.org/2000/svg">
<path fill-rule="evenodd" clip-rule="evenodd" d="M5.04176 14.1287C5.4567 13.4117 6.37434 13.1668 7.09135 13.5817L23.9997 23.3667L40.7881 13.642C41.505 13.2267 42.4227 13.4712 42.838 14.1881C43.2532 14.9049 43.0087 15.8227 42.2918 16.2379L24.7519 26.3979C24.287 26.6672 23.7136 26.6673 23.2487 26.3983L5.58871 16.1783C4.87169 15.7633 4.62681 14.8457 5.04176 14.1287Z" fill="#4F7EF7"/>
<path fill-rule="evenodd" clip-rule="evenodd" d="M24 23.58C24.8284 23.58 25.5 24.2515 25.5 25.08V43.22C25.5 44.0484 24.8284 44.72 24 44.72C23.1716 44.72 22.5 44.0484 22.5 43.22V25.08C22.5 24.2515 23.1716 23.58 24 23.58Z" fill="#4F7EF7"/>
<path fill-rule="evenodd" clip-rule="evenodd" d="M28.8706 3.64996C28.8719 3.65065 28.8731 3.65133 28.8743 3.65202L39.5466 9.56779C39.5464 9.56768 39.5468 9.5679 39.5466 9.56779C41.0464 10.3984 42.3228 11.7947 43.2196 13.3156C44.1164 14.8366 44.72 16.6279 44.72 18.34V25.6601C44.72 26.4885 44.0484 27.1601 43.22 27.1601C42.3915 27.1601 41.72 26.4885 41.72 25.6601V18.34C41.72 17.2921 41.3335 16.0234 40.6354 14.8394C39.9373 13.6555 39.0133 12.7017 38.0934 12.1923L27.4057 6.26799C26.5451 5.78483 25.3144 5.5 24 5.5C22.6856 5.5 21.4549 5.78481 20.5943 6.26798L20.5872 6.27195L9.90721 12.192C8.98729 12.7013 8.06268 13.6555 7.36461 14.8394C6.66647 16.0234 6.28003 17.2921 6.28003 18.34V29.6601C6.28003 30.708 6.66647 31.9767 7.36461 33.1607C8.06268 34.3445 8.98669 35.2984 9.90661 35.8078L20.5943 41.7321C21.4549 42.2153 22.6855 42.5 24 42.5C25.3145 42.5 26.5451 42.2153 27.4057 41.7321C28.1281 41.3266 29.0424 41.5834 29.448 42.3058C29.8535 43.0281 29.5967 43.9425 28.8743 44.3481C27.4549 45.1449 25.6855 45.5 24 45.5C22.3159 45.5 20.5481 45.1455 19.1293 44.3501C19.1281 44.3494 19.1269 44.3487 19.1257 44.3481L8.45337 38.4323C8.45317 38.4322 8.45357 38.4324 8.45337 38.4323C6.95355 37.6016 5.67721 36.2053 4.78041 34.6844C3.88357 33.1635 3.28003 31.3722 3.28003 29.6601V18.34C3.28003 16.6279 3.88357 14.8366 4.78041 13.3156C5.67721 11.7947 6.95295 10.3988 8.45278 9.56812L19.1294 3.64996C20.5481 2.85457 22.3159 2.5 24 2.5C25.6841 2.5 27.4519 2.85457 28.8706 3.64996Z" fill="#4F7EF7"/>
<g opacity="0.4">
<path fill-rule="evenodd" clip-rule="evenodd" d="M38.4 31.5C35.6938 31.5 33.5 33.6938 33.5 36.4C33.5 39.1062 35.6938 41.3 38.4 41.3C41.1062 41.3 43.3 39.1062 43.3 36.4C43.3 33.6938 41.1062 31.5 38.4 31.5ZM30.5 36.4C30.5 32.037 34.037 28.5 38.4 28.5C42.7631 28.5 46.3 32.037 46.3 36.4C46.3 40.7631 42.7631 44.3 38.4 44.3C34.037 44.3 30.5 40.7631 30.5 36.4Z" fill="#4F7EF7"/>
<path fill-rule="evenodd" clip-rule="evenodd" d="M42.9393 40.9393C43.5251 40.3536 44.4749 40.3536 45.0607 40.9393L47.0607 42.9393C47.6464 43.5251 47.6464 44.4749 47.0607 45.0607C46.4749 45.6464 45.5251 45.6464 44.9393 45.0607L42.9393 43.0607C42.3536 42.4749 42.3536 41.5251 42.9393 40.9393Z" fill="#4F7EF7"/>
</g>
</svg>
