<svg width="48" height="48" viewBox="0 0 48 48" fill="none" xmlns="http://www.w3.org/2000/svg">
<path fill-rule="evenodd" clip-rule="evenodd" d="M7.26707 5.97936C6.26498 6.58953 5.43945 7.92135 5.43945 10.1807V39.8607C5.43945 41.2844 6.63974 42.5007 8.15945 42.5007H23.4995V14.8207C23.4995 14.1095 23.2239 13.2285 22.7005 12.398C22.1776 11.5684 21.4952 10.9287 20.8399 10.6079L11.9599 6.24791C11.9597 6.24782 11.9601 6.248 11.9599 6.24791C9.87975 5.22974 8.27643 5.36476 7.26707 5.97936ZM5.70684 3.417C7.84239 2.11665 10.5794 2.23191 13.279 3.55345L22.159 7.91347C22.1588 7.91338 22.1592 7.91357 22.159 7.91347C23.4235 8.5327 24.4914 9.61309 25.2384 10.7984C25.985 11.9829 26.4995 13.4119 26.4995 14.8207V44.0007C26.4995 44.8291 25.8279 45.5007 24.9995 45.5007H8.15945C5.03917 45.5007 2.43945 42.997 2.43945 39.8607V10.1807C2.43945 7.20001 3.56393 4.72182 5.70684 3.417Z" fill="#4F7EF7"/>
<path fill-rule="evenodd" clip-rule="evenodd" d="M24.0556 19.6749C24.4074 19.3901 24.8689 19.2794 25.3116 19.3736L26.268 19.577L35.2641 21.5963L35.2679 21.5971L39.3213 22.4957C39.3208 22.4955 39.3218 22.4958 39.3213 22.4957C40.7742 22.815 42.2961 23.3886 43.4696 24.572C44.6622 25.7748 45.3329 27.4396 45.4159 29.612C45.44 29.8129 45.4397 29.9928 45.4395 30.0963C45.4395 30.105 45.4394 30.1131 45.4394 30.1207V37.6807C45.4394 40.0429 44.8948 42.0867 43.4601 43.5214C42.0255 44.956 39.9816 45.5007 37.6194 45.5007H24.9995C24.171 45.5007 23.4995 44.8291 23.4995 44.0007V20.8407C23.4995 20.3881 23.7038 19.9597 24.0556 19.6749ZM26.4995 22.7037L34.611 24.5243L34.6148 24.5252L38.6748 25.4252L38.6776 25.4258C39.8642 25.6865 40.7432 26.0832 41.3393 26.6844C41.9017 27.2516 42.3693 28.16 42.4202 29.7876C42.4221 29.8501 42.428 29.9124 42.4377 29.9741C42.4378 29.9763 42.438 29.9793 42.4381 29.9832C42.4386 29.9942 42.439 30.0099 42.4392 30.0334L42.4394 30.1207V37.6807C42.4394 39.6386 41.9841 40.7547 41.3388 41.4001C40.6934 42.0454 39.5773 42.5007 37.6194 42.5007H26.4995V22.7037Z" fill="#4F7EF7"/>
<path opacity="0.4" fill-rule="evenodd" clip-rule="evenodd" d="M9.49945 18.0007C9.49945 17.1722 10.171 16.5007 10.9995 16.5007H17.9395C18.7679 16.5007 19.4395 17.1722 19.4395 18.0007C19.4395 18.8291 18.7679 19.5007 17.9395 19.5007H10.9995C10.171 19.5007 9.49945 18.8291 9.49945 18.0007Z" fill="#4F7EF7"/>
<path opacity="0.4" fill-rule="evenodd" clip-rule="evenodd" d="M9.49945 26.0007C9.49945 25.1722 10.171 24.5007 10.9995 24.5007H17.9395C18.7679 24.5007 19.4395 25.1722 19.4395 26.0007C19.4395 26.8291 18.7679 27.5007 17.9395 27.5007H10.9995C10.171 27.5007 9.49945 26.8291 9.49945 26.0007Z" fill="#4F7EF7"/>
<path fill-rule="evenodd" clip-rule="evenodd" d="M25.0021 19.8697C25.3577 19.585 25.8235 19.4774 26.2679 19.5771L35.2679 21.5971C35.9528 21.7508 36.4395 22.3589 36.4395 23.0607V29.5007C36.4395 32.8091 33.7479 35.5007 30.4395 35.5007C27.131 35.5007 24.4395 32.8091 24.4395 29.5007V21.0407C24.4395 20.5852 24.6465 20.1543 25.0021 19.8697ZM27.4395 22.9147V29.5007C27.4395 31.1523 28.7879 32.5007 30.4395 32.5007C32.091 32.5007 33.4395 31.1523 33.4395 29.5007V24.2614L27.4395 22.9147Z" fill="#4F7EF7"/>
<path fill-rule="evenodd" clip-rule="evenodd" d="M34.0006 21.8909C34.3553 21.6062 34.82 21.4978 35.2641 21.5962L39.3213 22.4956C39.3218 22.4957 39.3223 22.4958 39.3227 22.4959C40.7757 22.8153 42.2961 23.3886 43.4696 24.572C44.6772 25.7898 45.3496 27.4813 45.4187 29.6938C45.42 29.7348 45.4196 29.7759 45.4175 29.8169C45.2574 32.9659 42.647 35.5007 39.4395 35.5007C36.131 35.5007 33.4395 32.8091 33.4395 29.5007V23.0607C33.4395 22.6058 33.6458 22.1756 34.0006 21.8909ZM36.4395 24.9296V29.5007C36.4395 31.1523 37.7879 32.5007 39.4395 32.5007C41.0124 32.5007 42.3094 31.2663 42.4179 29.7221C42.3567 28.1356 41.8942 27.2439 41.3393 26.6844C40.7432 26.0832 39.8642 25.6864 38.6776 25.4257L38.6748 25.4251L38.6748 25.4251L36.4395 24.9296Z" fill="#4F7EF7"/>
</svg>
