<svg width="48" height="48" viewBox="0 0 48 48" fill="none" xmlns="http://www.w3.org/2000/svg">
<path fill-rule="evenodd" clip-rule="evenodd" d="M24 5.5C19.3056 5.5 15.5 9.30558 15.5 14C15.5 18.6944 19.3056 22.5 24 22.5C28.6944 22.5 32.5 18.6944 32.5 14C32.5 9.30558 28.6944 5.5 24 5.5ZM12.5 14C12.5 7.64873 17.6487 2.5 24 2.5C30.3513 2.5 35.5 7.64873 35.5 14C35.5 20.3513 30.3513 25.5 24 25.5C17.6487 25.5 12.5 20.3513 12.5 14Z" fill="#4F7EF7"/>
<path opacity="0.4" fill-rule="evenodd" clip-rule="evenodd" d="M24 31.5C15.0457 31.5 8.32001 37.3617 8.32001 44C8.32001 44.8284 7.64843 45.5 6.82001 45.5C5.99158 45.5 5.32001 44.8284 5.32001 44C5.32001 35.1583 13.9943 28.5 24 28.5C26.055 28.5 28.0492 28.7782 29.9189 29.294C30.7175 29.5143 31.1863 30.3403 30.966 31.1389C30.7457 31.9375 29.9197 32.4063 29.1211 32.186C27.5109 31.7418 25.785 31.5 24 31.5Z" fill="#4F7EF7"/>
<path fill-rule="evenodd" clip-rule="evenodd" d="M36 29.5C34.4769 29.5 33.0631 30.0337 31.935 30.933L31.9324 30.935L31.9324 30.935C30.442 32.1176 29.5 33.9491 29.5 36C29.5 37.2188 29.841 38.3666 30.4367 39.3327L30.4493 39.3531L30.4491 39.3532C31.5688 41.2354 33.6282 42.5 36 42.5C37.6454 42.5 39.129 41.8999 40.2566 40.8851C40.2695 40.8734 40.2827 40.8619 40.2961 40.8507C40.782 40.4432 41.2103 39.9368 41.5444 39.3642L41.5633 39.3327C42.159 38.3666 42.5 37.2188 42.5 36C42.5 32.4084 39.5916 29.5 36 29.5ZM30.0663 28.586C31.698 27.2859 33.7637 26.5 36 26.5C41.2484 26.5 45.5 30.7516 45.5 36C45.5 37.7748 45.0047 39.4611 44.1264 40.8917C43.6262 41.745 42.985 42.5069 42.2441 43.1323C40.5741 44.6269 38.3854 45.5 36 45.5C32.5361 45.5 29.5187 43.6492 27.8769 40.8971C26.9966 39.4653 26.5 37.777 26.5 36C26.5 33.0115 27.8774 30.3235 30.0663 28.586Z" fill="#4F7EF7"/>
<path fill-rule="evenodd" clip-rule="evenodd" d="M40.2212 33.0216C40.7837 33.6298 40.7467 34.5788 40.1385 35.1413L35.8785 39.0812C35.287 39.6282 34.369 39.6103 33.7993 39.0406L31.8193 37.0607C31.2336 36.4749 31.2336 35.5251 31.8193 34.9393C32.4051 34.3536 33.3549 34.3536 33.9407 34.9393L34.9006 35.8993L38.1015 32.9388C38.7097 32.3763 39.6587 32.4134 40.2212 33.0216Z" fill="#4F7EF7"/>
</svg>
