<svg width="316" height="56" viewBox="0 0 316 56" fill="none" xmlns="http://www.w3.org/2000/svg">
<rect width="150" height="56" rx="8" fill="black"/>
<path d="M54.4512 17.3776C54.4693 17.7446 54.4127 18.1114 54.2845 18.4557C54.1564 18.8 53.9596 19.1147 53.706 19.3805C53.4218 19.6753 53.0785 19.9067 52.6987 20.0597C52.3189 20.2127 51.911 20.2837 51.5019 20.2682C51.0901 20.2719 50.6817 20.1932 50.3008 20.0368C49.9198 19.8805 49.574 19.6495 49.2836 19.3575C48.9932 19.0656 48.7641 18.7185 48.6097 18.3367C48.4554 17.9549 48.3789 17.5462 48.3848 17.1344C48.3789 16.7227 48.4554 16.3139 48.6098 15.9321C48.7642 15.5503 48.9933 15.2032 49.2837 14.9112C49.5741 14.6192 49.9199 14.3882 50.3008 14.2318C50.6817 14.0753 51.0901 13.9965 51.5019 14.0001C51.9253 13.9988 52.3444 14.0844 52.7334 14.2516C53.0946 14.3981 53.4162 14.6278 53.6719 14.922L53.1445 15.4498C52.9435 15.2133 52.6909 15.0261 52.4061 14.9026C52.1213 14.7792 51.8119 14.7228 51.5019 14.7379C51.1898 14.7363 50.8806 14.7977 50.5928 14.9184C50.305 15.0391 50.0445 15.2167 49.827 15.4404C49.6094 15.6642 49.4393 15.9295 49.3267 16.2206C49.2141 16.5117 49.1615 16.8225 49.1719 17.1344C49.1644 17.6016 49.2959 18.0605 49.5496 18.4529C49.8033 18.8453 50.1678 19.1535 50.5969 19.3384C51.026 19.5234 51.5003 19.5767 51.9598 19.4917C52.4193 19.4067 52.8431 19.1872 53.1777 18.861C53.4856 18.5293 53.664 18.0979 53.6806 17.6456H51.5019V16.9249H54.4092C54.4367 17.0743 54.4507 17.2258 54.4512 17.3776Z" fill="white"/>
<path d="M59.0605 14.8717H56.3281V16.774H58.792V17.4948H56.3281V19.3971H59.0605V20.1344H55.5576V14.1344H59.0605V14.8717Z" fill="white"/>
<path d="M62.3115 20.1344H61.54V14.8717H59.8642V14.1344H63.9873V14.8717H62.3115V20.1344Z" fill="white"/>
<path d="M66.9707 20.1344V14.1344H67.7412V20.1344H66.9707Z" fill="white"/>
<path d="M71.1611 20.1344H70.3896V14.8717H68.7139V14.1344H72.8369V14.8717H71.1611V20.1344Z" fill="white"/>
<path d="M80.6421 19.359C80.0581 19.9413 79.267 20.2682 78.4424 20.2682C77.6177 20.2682 76.8267 19.9413 76.2427 19.359C75.9538 19.0664 75.7266 18.7187 75.5748 18.3365C75.423 17.9543 75.3496 17.5455 75.3589 17.1344C75.3496 16.7233 75.423 16.3145 75.5748 15.9323C75.7266 15.5502 75.9538 15.2024 76.2427 14.9098C76.5313 14.6211 76.8741 14.3921 77.2514 14.236C77.6286 14.0799 78.033 13.9998 78.4412 14.0001C78.8495 14.0005 79.2537 14.0814 79.6307 14.2381C80.0077 14.3949 80.35 14.6245 80.6382 14.9137C80.9273 15.2056 81.1549 15.5525 81.3073 15.934C81.4598 16.3155 81.5341 16.7237 81.5259 17.1344C81.535 17.5455 81.4614 17.9542 81.3096 18.3363C81.1578 18.7185 80.9308 19.0662 80.6421 19.359ZM76.812 18.8566C77.2445 19.2884 77.8307 19.5309 78.4419 19.5309C79.0531 19.5309 79.6392 19.2884 80.0718 18.8566C80.2936 18.6295 80.467 18.3598 80.5817 18.0638C80.6963 17.7678 80.7498 17.4517 80.7388 17.1344C80.7498 16.8172 80.6963 16.501 80.5817 16.205C80.467 15.909 80.2936 15.6393 80.0718 15.4122C79.6392 14.9804 79.0531 14.7379 78.4419 14.7379C77.8307 14.7379 77.2445 14.9804 76.812 15.4122C76.5905 15.6395 76.4173 15.9092 76.3028 16.2052C76.1884 16.5012 76.135 16.8173 76.146 17.1344C76.135 17.4516 76.1884 17.7677 76.3028 18.0636C76.4173 18.3596 76.5905 18.6294 76.812 18.8566Z" fill="white"/>
<path d="M82.6079 20.1344V14.1344H83.5464L86.4624 18.8019H86.4956L86.4624 17.6456V14.1344H87.2339V20.1344H86.4292L83.3784 15.2408H83.3452L83.3784 16.3971V20.1344H82.6079Z" fill="white"/>
<path d="M54.4512 17.3776C54.4693 17.7446 54.4127 18.1114 54.2845 18.4557C54.1564 18.8 53.9596 19.1147 53.706 19.3805C53.4218 19.6753 53.0785 19.9067 52.6987 20.0597C52.3189 20.2127 51.911 20.2837 51.5019 20.2682C51.0901 20.2719 50.6817 20.1932 50.3008 20.0368C49.9198 19.8805 49.574 19.6495 49.2836 19.3575C48.9932 19.0656 48.7641 18.7185 48.6097 18.3367C48.4554 17.9549 48.3789 17.5462 48.3848 17.1344C48.3789 16.7227 48.4554 16.3139 48.6098 15.9321C48.7642 15.5503 48.9933 15.2032 49.2837 14.9112C49.5741 14.6192 49.9199 14.3882 50.3008 14.2318C50.6817 14.0753 51.0901 13.9965 51.5019 14.0001C51.9253 13.9988 52.3444 14.0844 52.7334 14.2516C53.0946 14.3981 53.4162 14.6278 53.6719 14.922L53.1445 15.4498C52.9435 15.2133 52.6909 15.0261 52.4061 14.9026C52.1213 14.7792 51.8119 14.7228 51.5019 14.7379C51.1898 14.7363 50.8806 14.7977 50.5928 14.9184C50.305 15.0391 50.0445 15.2167 49.827 15.4404C49.6094 15.6642 49.4393 15.9295 49.3267 16.2206C49.2141 16.5117 49.1615 16.8225 49.1719 17.1344C49.1644 17.6016 49.2959 18.0605 49.5496 18.4529C49.8033 18.8453 50.1678 19.1535 50.5969 19.3384C51.026 19.5234 51.5003 19.5767 51.9598 19.4917C52.4193 19.4067 52.8431 19.1872 53.1777 18.861C53.4856 18.5293 53.664 18.0979 53.6806 17.6456H51.5019V16.9249H54.4092C54.4367 17.0743 54.4507 17.2258 54.4512 17.3776Z" stroke="white" stroke-width="0.2" stroke-miterlimit="10"/>
<path d="M59.0605 14.8717H56.3281V16.774H58.792V17.4948H56.3281V19.3971H59.0605V20.1344H55.5576V14.1344H59.0605V14.8717Z" stroke="white" stroke-width="0.2" stroke-miterlimit="10"/>
<path d="M62.3115 20.1344H61.54V14.8717H59.8642V14.1344H63.9873V14.8717H62.3115V20.1344Z" stroke="white" stroke-width="0.2" stroke-miterlimit="10"/>
<path d="M66.9707 20.1344V14.1344H67.7412V20.1344H66.9707Z" stroke="white" stroke-width="0.2" stroke-miterlimit="10"/>
<path d="M71.1611 20.1344H70.3896V14.8717H68.7139V14.1344H72.8369V14.8717H71.1611V20.1344Z" stroke="white" stroke-width="0.2" stroke-miterlimit="10"/>
<path d="M80.6421 19.359C80.0581 19.9413 79.267 20.2682 78.4424 20.2682C77.6177 20.2682 76.8267 19.9413 76.2427 19.359C75.9538 19.0664 75.7266 18.7187 75.5748 18.3365C75.423 17.9543 75.3496 17.5455 75.3589 17.1344C75.3496 16.7233 75.423 16.3145 75.5748 15.9323C75.7266 15.5502 75.9538 15.2024 76.2427 14.9098C76.5313 14.6211 76.8741 14.3921 77.2514 14.236C77.6286 14.0799 78.033 13.9998 78.4412 14.0001C78.8495 14.0005 79.2537 14.0814 79.6307 14.2381C80.0077 14.3949 80.35 14.6245 80.6382 14.9137C80.9273 15.2056 81.1549 15.5525 81.3073 15.934C81.4598 16.3155 81.5341 16.7237 81.5259 17.1344C81.535 17.5455 81.4614 17.9542 81.3096 18.3363C81.1578 18.7185 80.9308 19.0662 80.6421 19.359ZM76.812 18.8566C77.2445 19.2884 77.8307 19.5309 78.4419 19.5309C79.0531 19.5309 79.6392 19.2884 80.0718 18.8566C80.2936 18.6295 80.467 18.3598 80.5817 18.0638C80.6963 17.7678 80.7498 17.4517 80.7388 17.1344C80.7498 16.8172 80.6963 16.501 80.5817 16.205C80.467 15.909 80.2936 15.6393 80.0718 15.4122C79.6392 14.9804 79.0531 14.7379 78.4419 14.7379C77.8307 14.7379 77.2445 14.9804 76.812 15.4122C76.5905 15.6395 76.4173 15.9092 76.3028 16.2052C76.1884 16.5012 76.135 16.8173 76.146 17.1344C76.135 17.4516 76.1884 17.7677 76.3028 18.0636C76.4173 18.3596 76.5905 18.6294 76.812 18.8566Z" stroke="white" stroke-width="0.2" stroke-miterlimit="10"/>
<path d="M82.6079 20.1344V14.1344H83.5464L86.4624 18.8019H86.4956L86.4624 17.6456V14.1344H87.2339V20.1344H86.4292L83.3784 15.2408H83.3452L83.3784 16.3971V20.1344H82.6079Z" stroke="white" stroke-width="0.2" stroke-miterlimit="10"/>
<path d="M75.1686 28.886C74.3281 28.8892 73.5074 29.1413 72.81 29.6106C72.1127 30.0799 71.5701 30.7453 71.2507 31.5227C70.9312 32.3001 70.8493 33.1548 71.0152 33.9788C71.1812 34.8028 71.5875 35.5591 72.183 36.1523C72.7784 36.7455 73.5363 37.149 74.3609 37.3118C75.1855 37.4746 76.0399 37.3894 76.8161 37.067C77.5923 36.7446 78.2556 36.1994 78.7222 35.5004C79.1889 34.8013 79.4379 33.9796 79.4379 33.1391C79.4461 32.5769 79.3412 32.0188 79.1294 31.498C78.9176 30.9772 78.6031 30.5043 78.2048 30.1075C77.8065 29.7107 77.3324 29.3981 76.8108 29.1882C76.2892 28.9784 75.7307 28.8756 75.1686 28.886ZM75.1686 35.7168C74.651 35.7537 74.1342 35.6339 73.6856 35.373C73.237 35.1121 72.8774 34.7222 72.6535 34.2541C72.4296 33.7859 72.3518 33.2612 72.4303 32.7482C72.5088 32.2353 72.74 31.7578 73.0936 31.378C73.4473 30.9983 73.9071 30.7338 74.4131 30.619C74.9192 30.5042 75.4481 30.5444 75.931 30.7344C76.4139 30.9244 76.8284 31.2554 77.1206 31.6843C77.4127 32.1132 77.569 32.6201 77.569 33.1391C77.5847 33.4669 77.5347 33.7946 77.4218 34.1028C77.309 34.411 77.1356 34.6935 76.9119 34.9337C76.6883 35.1739 76.4188 35.3669 76.1194 35.5014C75.82 35.6359 75.4967 35.7091 75.1686 35.7168ZM65.8552 28.886C65.0147 28.8891 64.1939 29.1413 63.4966 29.6106C62.7993 30.0798 62.2566 30.7452 61.9372 31.5226C61.6177 32.3001 61.5358 33.1547 61.7017 33.9787C61.8676 34.8027 62.274 35.559 62.8694 36.1523C63.4649 36.7455 64.2228 37.149 65.0474 37.3118C65.872 37.4746 66.7263 37.3894 67.5026 37.067C68.2788 36.7446 68.9421 36.1995 69.4087 35.5004C69.8754 34.8013 70.1244 33.9796 70.1244 33.1391C70.1326 32.5769 70.0277 32.0188 69.8159 31.498C69.6041 30.9772 69.2897 30.5044 68.8914 30.1075C68.493 29.7107 68.019 29.3981 67.4974 29.1882C66.9758 28.9784 66.4173 28.8756 65.8552 28.886ZM65.8552 35.7168C65.3376 35.7537 64.8208 35.6339 64.3722 35.373C63.9236 35.1121 63.564 34.7222 63.3401 34.2541C63.1162 33.7859 63.0384 33.2612 63.1169 32.7482C63.1954 32.2353 63.4266 31.7578 63.7802 31.378C64.1339 30.9983 64.5937 30.7338 65.0997 30.619C65.6058 30.5042 66.1347 30.5444 66.6176 30.7344C67.1005 30.9244 67.515 31.2554 67.8072 31.6843C68.0993 32.1132 68.2556 32.6201 68.2556 33.1391C68.2713 33.4669 68.2213 33.7946 68.1084 34.1028C67.9956 34.411 67.8222 34.6935 67.5986 34.9337C67.3749 35.1739 67.1054 35.367 66.806 35.5014C66.5066 35.6359 66.1833 35.7091 65.8552 35.7168ZM54.7764 30.191V31.9953H59.0941C59.0318 32.8416 58.6855 33.642 58.1113 34.2669C57.6786 34.7079 57.1583 35.0533 56.5839 35.2809C56.0094 35.5084 55.3937 35.613 54.7764 35.5879C53.5144 35.5708 52.3098 35.0575 51.4234 34.159C50.537 33.2605 50.04 32.0491 50.04 30.787C50.04 29.5248 50.537 28.3135 51.4234 27.415C52.3098 26.5165 53.5144 26.0032 54.7764 25.9861C55.9886 25.9702 57.1581 26.4334 58.0308 27.2749L59.3035 26.0022C58.708 25.4127 58.0009 24.948 57.2235 24.6354C56.4461 24.3228 55.6142 24.1685 54.7764 24.1817C53.9009 24.1689 53.0316 24.3304 52.219 24.6566C51.4064 24.9828 50.6668 25.4673 50.0432 26.082C49.4196 26.6966 48.9243 27.4291 48.5863 28.2368C48.2483 29.0445 48.0742 29.9114 48.0742 30.787C48.0742 31.6626 48.2483 32.5295 48.5863 33.3372C48.9243 34.1449 49.4196 34.8774 50.0432 35.492C50.6668 36.1066 51.4064 36.5911 52.219 36.9174C53.0316 37.2436 53.9009 37.405 54.7764 37.3923C55.6318 37.4278 56.4851 37.2809 57.2794 36.9615C58.0738 36.6421 58.7912 36.1574 59.384 35.5396C60.4364 34.3908 60.9973 32.8758 60.9468 31.3187C60.9509 30.9405 60.9185 30.5629 60.85 30.191H54.7764ZM100.085 31.5925C99.8291 30.8221 99.3425 30.1491 98.6911 29.6649C98.0397 29.1807 97.255 28.9087 96.4437 28.886C95.8972 28.8894 95.3571 29.0035 94.856 29.2216C94.3549 29.4396 93.9033 29.757 93.5283 30.1546C93.1534 30.5521 92.8629 31.0215 92.6745 31.5345C92.4861 32.0475 92.4037 32.5934 92.4323 33.1391C92.42 33.6983 92.5205 34.2542 92.7278 34.7737C92.9352 35.2931 93.2451 35.7655 93.6391 36.1625C94.0331 36.5595 94.503 36.873 95.0209 37.0843C95.5388 37.2956 96.0939 37.4003 96.6532 37.3923C97.3538 37.3962 98.0445 37.226 98.6631 36.897C99.2817 36.568 99.8089 36.0905 100.197 35.5074L98.7475 34.5408C98.5303 34.9015 98.223 35.1996 97.8559 35.4058C97.4887 35.6119 97.0743 35.7191 96.6532 35.7168C96.2199 35.7334 95.7916 35.6193 95.4239 35.3895C95.0562 35.1597 94.766 34.8247 94.591 34.428L100.278 32.0759L100.085 31.5925ZM94.285 33.0103C94.2649 32.7007 94.3069 32.3903 94.4083 32.0971C94.5097 31.804 94.6685 31.534 94.8755 31.3029C95.0825 31.0719 95.3335 30.8845 95.6139 30.7516C95.8942 30.6188 96.1982 30.5432 96.5081 30.5293C96.8308 30.5081 97.1526 30.5823 97.4333 30.7427C97.7141 30.9032 97.9414 31.1427 98.087 31.4315L94.285 33.0103ZM89.6612 37.1345H91.53V24.6329H89.6612V37.1345ZM86.6002 29.8365H86.5358C86.2517 29.5278 85.9049 29.2833 85.5187 29.1194C85.1325 28.9555 84.7158 28.8759 84.2964 28.886C83.1997 28.9327 82.1634 29.4012 81.4039 30.1937C80.6444 30.9862 80.2204 32.0414 80.2204 33.1391C80.2204 34.2368 80.6444 35.2921 81.4039 36.0846C82.1634 36.8771 83.1997 37.3456 84.2964 37.3923C84.7175 37.4035 85.1359 37.3228 85.5227 37.1559C85.9094 36.989 86.2551 36.7398 86.5358 36.4257H86.6002V37.0379C86.6002 38.6651 85.7303 39.535 84.3286 39.535C83.8614 39.5238 83.4082 39.3738 83.0266 39.1041C82.6451 38.8344 82.3524 38.4572 82.186 38.0206L80.5588 38.6973C80.8655 39.444 81.3881 40.082 82.0597 40.5298C82.7314 40.9776 83.5214 41.2146 84.3286 41.2105C86.5197 41.2105 88.3724 39.9217 88.3724 36.7801V29.1437H86.6002V29.8365ZM84.4576 35.7168C83.8116 35.662 83.2098 35.3667 82.7712 34.8894C82.3326 34.412 82.0892 33.7874 82.0892 33.1391C82.0892 32.4909 82.3326 31.8663 82.7712 31.3889C83.2098 30.9115 83.8116 30.6163 84.4576 30.5615C84.7789 30.5772 85.0938 30.6574 85.3835 30.7974C85.6732 30.9374 85.9318 31.1343 86.1437 31.3763C86.3557 31.6183 86.5168 31.9006 86.6173 32.2062C86.7179 32.5118 86.7559 32.8346 86.7291 33.1552C86.7542 33.4738 86.7148 33.7942 86.6133 34.0973C86.5117 34.4003 86.35 34.6798 86.138 34.9189C85.9259 35.1581 85.6678 35.352 85.3791 35.4891C85.0903 35.6262 84.7769 35.7036 84.4576 35.7168ZM108.839 24.6331H104.367V37.1345H106.233V32.3981H108.839C109.366 32.427 109.894 32.348 110.391 32.166C110.887 31.984 111.341 31.7027 111.725 31.3393C112.108 30.9759 112.414 30.5381 112.623 30.0526C112.832 29.5671 112.94 29.0441 112.94 28.5156C112.94 27.987 112.832 27.464 112.623 26.9785C112.414 26.493 112.108 26.0552 111.725 25.6919C111.341 25.3285 110.887 25.0472 110.391 24.8652C109.894 24.6831 109.366 24.6042 108.839 24.6331ZM108.887 30.6583H106.233V26.373H108.887C109.172 26.3671 109.455 26.4181 109.72 26.5232C109.986 26.6282 110.227 26.7851 110.431 26.9846C110.635 27.1842 110.796 27.4224 110.907 27.6853C111.017 27.9482 111.074 28.2305 111.074 28.5156C111.074 28.8008 111.017 29.0831 110.907 29.346C110.796 29.6089 110.635 29.8471 110.431 30.0467C110.227 30.2462 109.986 30.4031 109.72 30.5081C109.455 30.6131 109.172 30.6642 108.887 30.6583ZM120.418 28.863C119.737 28.8232 119.06 28.9831 118.468 29.3231C117.877 29.6631 117.398 30.1684 117.089 30.7769L118.746 31.4685C118.91 31.1665 119.159 30.9189 119.462 30.756C119.764 30.5932 120.108 30.5222 120.451 30.5517C120.924 30.5055 121.396 30.6488 121.764 30.9503C122.132 31.2518 122.365 31.6868 122.413 32.16V32.2887C121.814 31.9704 121.145 31.8046 120.467 31.8062C118.681 31.8062 116.864 32.7873 116.864 34.6208C116.881 35.0072 116.976 35.3862 117.143 35.7353C117.309 36.0843 117.544 36.3964 117.834 36.6529C118.123 36.9094 118.462 37.1051 118.828 37.2285C119.195 37.3518 119.582 37.4003 119.968 37.371C120.438 37.3986 120.907 37.2998 121.325 37.0849C121.744 36.8699 122.097 36.5466 122.348 36.1487H122.413V37.1137H124.214V32.3209C124.214 30.1014 122.557 28.863 120.418 28.863ZM120.193 35.7144C119.582 35.7144 118.73 35.4089 118.73 34.6529C118.73 33.688 119.791 33.318 120.708 33.318C121.303 33.3021 121.892 33.4466 122.413 33.7362C122.344 34.2784 122.082 34.7775 121.674 35.1412C121.266 35.5048 120.74 35.7084 120.193 35.7144ZM130.776 29.1364L128.637 34.5564H128.573L126.353 29.1364H124.343L127.672 36.7116L125.774 40.9254H127.72L132.851 29.1364H130.776ZM113.969 37.1345H115.835V24.6331H113.969V37.1345Z" fill="white"/>
<path d="M17.4664 14.4068C17.1385 14.7989 16.9729 15.3015 17.0036 15.8117V37.9278C16.9729 38.438 17.1384 38.9407 17.4664 39.3327L17.5404 39.4048L29.9294 27.0159V26.7236L17.5404 14.3342L17.4664 14.4068Z" fill="url(#paint0_linear_876_17)"/>
<path d="M34.0588 31.1471L29.9294 27.0157V26.7234L34.0598 22.593L34.1529 22.6461L39.0457 25.4262C40.4433 26.2202 40.4433 27.5194 39.0457 28.3139L34.1529 31.094L34.0588 31.1471Z" fill="url(#paint1_linear_876_17)"/>
<path d="M34.1529 31.0935L29.9294 26.8696L17.4664 39.3325C17.7512 39.5837 18.1149 39.7273 18.4944 39.7385C18.8739 39.7497 19.2454 39.6278 19.5445 39.3939L34.1529 31.0935Z" fill="url(#paint2_linear_876_17)"/>
<path d="M34.1529 22.6457L19.5445 14.3453C19.2454 14.1114 18.8739 13.9895 18.4944 14.0007C18.1149 14.0119 17.7512 14.1556 17.4664 14.4067L29.9294 26.8697L34.1529 22.6457Z" fill="url(#paint3_linear_876_17)"/>
<path opacity="0.2" d="M34.0598 31.0005L19.5445 39.2478C19.2569 39.4667 18.906 39.5862 18.5445 39.5881C18.1831 39.59 17.8308 39.4743 17.5409 39.2585L17.4664 39.333L17.5404 39.4051L17.5409 39.4046C17.8308 39.6206 18.1831 39.7363 18.5445 39.7344C18.906 39.7325 19.257 39.6129 19.5445 39.3939L34.1529 31.0935L34.0598 31.0005Z" fill="black"/>
<path opacity="0.12" d="M17.4664 39.1871C17.1385 38.795 16.973 38.2924 17.0036 37.7822V37.9283C16.9729 38.4385 17.1385 38.9411 17.4664 39.3332L17.5409 39.2587L17.4664 39.1871Z" fill="black"/>
<path opacity="0.12" d="M39.0457 28.1674L34.0598 31.0006L34.1529 31.0936L39.0457 28.3135C39.3335 28.1886 39.5826 27.9888 39.767 27.735C39.9513 27.4811 40.0643 27.1825 40.094 26.8701C40.0322 27.153 39.9052 27.4175 39.7232 27.6427C39.5412 27.8679 39.3093 28.0476 39.0457 28.1674Z" fill="black"/>
<path opacity="0.25" d="M19.5445 14.492L39.0457 25.572C39.3094 25.6918 39.5414 25.8716 39.7234 26.0969C39.9054 26.3222 40.0323 26.5868 40.094 26.8698C40.0645 26.5573 39.9516 26.2585 39.7673 26.0046C39.5829 25.7506 39.3337 25.5507 39.0457 25.4259L19.5445 14.3459C18.1469 13.5518 17.0036 14.2114 17.0036 15.8122V15.9583C17.0036 14.3576 18.1469 13.698 19.5445 14.492Z" fill="white"/>
<rect x="166" width="150" height="56" rx="8" fill="black"/>
<path d="M203.086 26.5804C203.097 25.7457 203.338 24.9273 203.786 24.2014C204.234 23.4754 204.874 22.8655 205.647 22.4283C205.156 21.7831 204.508 21.2522 203.755 20.8776C203.002 20.5031 202.165 20.2952 201.309 20.2706C199.484 20.0944 197.714 21.2754 196.784 21.2754C195.836 21.2754 194.404 20.2881 192.862 20.3173C191.864 20.347 190.892 20.6138 190.04 21.0919C189.188 21.5699 188.485 22.2429 188 23.0452C185.898 26.3936 187.466 31.3146 189.48 34.0213C190.487 35.3466 191.664 36.8271 193.205 36.7746C194.713 36.717 195.276 35.8901 197.096 35.8901C198.899 35.8901 199.427 36.7746 200.999 36.7412C202.617 36.717 203.636 35.4099 204.608 34.072C205.332 33.1277 205.889 32.084 206.259 30.9795C205.319 30.6138 204.517 30.0016 203.953 29.2193C203.388 28.437 203.087 27.5192 203.086 26.5804Z" fill="white"/>
<path d="M200.117 18.4906C200.999 17.5164 201.433 16.2642 201.328 15C199.98 15.1302 198.736 15.7228 197.842 16.6596C197.404 17.1173 197.07 17.6497 196.856 18.2265C196.643 18.8033 196.555 19.413 196.598 20.021C197.272 20.0274 197.939 19.893 198.549 19.6279C199.158 19.3628 199.694 18.9739 200.117 18.4906Z" fill="white"/>
<path d="M222.145 33.7027H217L215.765 37.0591H213.585L218.459 24.6411H220.723L225.596 37.0591H223.38L222.145 33.7027ZM217.533 32.1539H221.611L219.601 26.7066H219.545L217.533 32.1539Z" fill="white"/>
<path d="M236.121 32.5328C236.121 35.3463 234.484 37.1539 232.014 37.1539C231.388 37.184 230.766 37.0514 230.218 36.7712C229.671 36.4911 229.22 36.0747 228.917 35.5699H228.871V40.0542H226.851V28.0054H228.806V29.5113H228.843C229.159 29.0088 229.618 28.5946 230.17 28.3128C230.721 28.0309 231.346 27.892 231.977 27.9107C234.474 27.9107 236.121 29.7271 236.121 32.5328ZM234.044 32.5328C234.044 30.6998 233.015 29.4947 231.444 29.4947C229.9 29.4947 228.862 30.7252 228.862 32.5328C228.862 34.357 229.9 35.5787 231.444 35.5787C233.015 35.5787 234.044 34.3824 234.044 32.5328Z" fill="white"/>
<path d="M246.952 32.5328C246.952 35.3463 245.315 37.1539 242.845 37.1539C242.219 37.184 241.597 37.0514 241.05 36.7712C240.502 36.4911 240.051 36.0747 239.749 35.5699H239.702V40.0542H237.682V28.0054H239.637V29.5113H239.674C239.991 29.0088 240.449 28.5946 241.001 28.3128C241.553 28.0309 242.177 27.892 242.808 27.9107C245.306 27.9107 246.952 29.7271 246.952 32.5328ZM244.876 32.5328C244.876 30.6998 243.846 29.4947 242.275 29.4947C240.732 29.4947 239.694 30.7252 239.694 32.5328C239.694 34.357 240.732 35.5787 242.275 35.5787C243.846 35.5787 244.876 34.3824 244.876 32.5328Z" fill="white"/>
<path d="M254.111 33.5992C254.26 34.8306 255.561 35.6392 257.338 35.6392C259.04 35.6392 260.265 34.8306 260.265 33.7202C260.265 32.7564 259.526 32.1792 257.777 31.7837L256.028 31.396C253.549 30.8452 252.398 29.7788 252.398 28.0483C252.398 25.9058 254.428 24.4341 257.31 24.4341C260.162 24.4341 262.117 25.9058 262.183 28.0483H260.144C260.022 26.8091 258.909 26.061 257.281 26.061C255.654 26.061 254.541 26.8179 254.541 27.9194C254.541 28.7974 255.252 29.314 256.991 29.7094L258.479 30.0454C261.248 30.6479 262.399 31.6714 262.399 33.4878C262.399 35.811 260.387 37.2661 257.188 37.2661C254.194 37.2661 252.173 35.8452 252.043 33.5991L254.111 33.5992Z" fill="white"/>
<path d="M266.758 25.8628V28.0054H268.63V29.4771H266.758V34.4683C266.758 35.2437 267.133 35.605 267.956 35.605C268.178 35.6015 268.4 35.5871 268.62 35.562V37.0249C268.25 37.0885 267.874 37.1173 267.498 37.1109C265.506 37.1109 264.729 36.4224 264.729 34.6665V29.4771H263.298V28.0054H264.729V25.8628H266.758Z" fill="white"/>
<path d="M269.713 32.5328C269.713 29.6841 271.537 27.8941 274.381 27.8941C277.234 27.8941 279.049 29.6841 279.049 32.5328C279.049 35.3892 277.244 37.1714 274.381 37.1714C271.519 37.1714 269.713 35.3892 269.713 32.5328ZM276.991 32.5328C276.991 30.5787 276.018 29.4254 274.381 29.4254C272.744 29.4254 271.772 30.5875 271.772 32.5328C271.772 34.4947 272.744 35.6392 274.381 35.6392C276.018 35.6392 276.991 34.4947 276.991 32.5328Z" fill="white"/>
<path d="M280.715 28.0054H282.641V29.5464H282.688C282.818 29.0651 283.125 28.6398 283.556 28.3419C283.987 28.044 284.516 27.8918 285.055 27.9107C285.288 27.9099 285.52 27.9332 285.747 27.98V29.7183C285.453 29.6357 285.147 29.5978 284.839 29.606C284.546 29.595 284.253 29.6427 283.982 29.7455C283.71 29.8484 283.466 30.0042 283.266 30.202C283.066 30.3999 282.915 30.6353 282.823 30.892C282.732 31.1486 282.701 31.4205 282.735 31.689V37.0591H280.715L280.715 28.0054Z" fill="white"/>
<path d="M295.06 34.4C294.789 36.0435 293.049 37.1714 290.823 37.1714C287.96 37.1714 286.183 35.4068 286.183 32.5757C286.183 29.7359 287.97 27.8941 290.738 27.8941C293.461 27.8941 295.173 29.6148 295.173 32.3599V32.9966H288.222V33.1089C288.19 33.4421 288.236 33.7778 288.355 34.0936C288.475 34.4095 288.667 34.6983 288.917 34.9408C289.167 35.1834 289.471 35.3741 289.808 35.5004C290.144 35.6267 290.506 35.6857 290.87 35.6734C291.347 35.7145 291.826 35.6128 292.236 35.3834C292.645 35.1539 292.963 34.809 293.142 34.3999L295.06 34.4ZM288.232 31.6978H293.152C293.17 31.3982 293.121 31.0984 293.007 30.8172C292.893 30.536 292.717 30.2794 292.491 30.0637C292.264 29.8479 291.991 29.6776 291.69 29.5634C291.388 29.4491 291.064 29.3935 290.738 29.4C290.409 29.3981 290.083 29.4563 289.779 29.571C289.474 29.6858 289.198 29.8548 288.965 30.0685C288.732 30.2821 288.547 30.5361 288.421 30.8157C288.295 31.0954 288.231 31.3952 288.232 31.6978Z" fill="white"/>
<path d="M217.28 15.294C217.703 15.266 218.128 15.3249 218.524 15.4663C218.92 15.6078 219.277 15.8282 219.569 16.1119C219.861 16.3955 220.08 16.7352 220.212 17.1065C220.344 17.4777 220.385 17.8713 220.332 18.2588C220.332 20.1651 219.212 21.2608 217.28 21.2608H214.937V15.294H217.28ZM215.945 20.417H217.167C217.47 20.4336 217.773 20.388 218.054 20.2834C218.335 20.1788 218.587 20.0178 218.792 19.8123C218.997 19.6067 219.149 19.3617 219.238 19.0951C219.327 18.8284 219.35 18.5469 219.306 18.271C219.347 17.9962 219.322 17.7164 219.231 17.4517C219.141 17.1871 218.988 16.9441 218.784 16.7401C218.579 16.5362 218.328 16.3764 218.049 16.2722C217.769 16.1679 217.468 16.1218 217.167 16.1372H215.945V20.417Z" fill="white"/>
<path d="M221.47 19.0073C221.439 18.7114 221.476 18.4129 221.578 18.1308C221.68 17.8487 221.845 17.5894 222.062 17.3694C222.279 17.1494 222.544 16.9736 222.84 16.8534C223.135 16.7331 223.455 16.671 223.778 16.671C224.101 16.671 224.42 16.7331 224.716 16.8534C225.011 16.9736 225.276 17.1494 225.494 17.3694C225.711 17.5894 225.876 17.8487 225.978 18.1308C226.08 18.4129 226.117 18.7114 226.086 19.0073C226.117 19.3036 226.081 19.6025 225.979 19.8851C225.877 20.1676 225.713 20.4274 225.495 20.6478C225.278 20.8682 225.013 21.0444 224.717 21.1649C224.421 21.2854 224.101 21.3477 223.778 21.3477C223.454 21.3477 223.134 21.2854 222.839 21.1649C222.543 21.0444 222.278 20.8682 222.06 20.6478C221.843 20.4274 221.678 20.1676 221.576 19.8851C221.475 19.6025 221.438 19.3036 221.47 19.0073ZM225.092 19.0073C225.092 18.0313 224.616 17.4605 223.779 17.4605C222.94 17.4605 222.467 18.0313 222.467 19.0073C222.467 19.9912 222.94 20.5576 223.779 20.5576C224.616 20.5576 225.092 19.9873 225.092 19.0073Z" fill="white"/>
<path d="M232.222 21.2607H231.22L230.209 17.9443H230.132L229.125 21.2607H228.132L226.783 16.7578H227.763L228.64 20.1938H228.712L229.718 16.7578H230.645L231.651 20.1938H231.728L232.6 16.7578H233.566L232.222 21.2607Z" fill="white"/>
<path d="M234.701 16.7578H235.631V17.4731H235.703C235.825 17.2162 236.032 17.0009 236.294 16.8571C236.556 16.7132 236.86 16.6482 237.164 16.6709C237.402 16.6544 237.641 16.6875 237.863 16.7676C238.086 16.8477 238.286 16.9728 238.448 17.1336C238.611 17.2944 238.732 17.4869 238.803 17.6967C238.874 17.9065 238.893 18.1283 238.858 18.3457V21.2607H237.892V18.5689C237.892 17.8452 237.55 17.4854 236.836 17.4854C236.674 17.4784 236.512 17.5037 236.362 17.5596C236.212 17.6154 236.077 17.7004 235.966 17.8088C235.855 17.9172 235.771 18.0464 235.719 18.1875C235.668 18.3286 235.65 18.4784 235.667 18.6265V21.2607H234.701L234.701 16.7578Z" fill="white"/>
<path d="M240.397 15H241.363V21.2607H240.397V15Z" fill="white"/>
<path d="M242.706 19.0073C242.675 18.7114 242.712 18.4128 242.814 18.1307C242.916 17.8487 243.081 17.5893 243.298 17.3693C243.515 17.1493 243.78 16.9736 244.076 16.8533C244.371 16.733 244.691 16.6709 245.014 16.6709C245.337 16.6709 245.657 16.733 245.952 16.8533C246.248 16.9736 246.513 17.1493 246.73 17.3693C246.947 17.5893 247.112 17.8487 247.214 18.1307C247.316 18.4128 247.353 18.7114 247.322 19.0073C247.354 19.3036 247.317 19.6026 247.216 19.8851C247.114 20.1676 246.949 20.4274 246.732 20.6478C246.514 20.8682 246.249 21.0444 245.953 21.1649C245.657 21.2854 245.338 21.3477 245.014 21.3477C244.69 21.3477 244.371 21.2854 244.075 21.1649C243.779 21.0444 243.514 20.8682 243.296 20.6478C243.079 20.4274 242.914 20.1676 242.812 19.8851C242.711 19.6026 242.674 19.3036 242.706 19.0073ZM246.328 19.0073C246.328 18.0313 245.852 17.4605 245.015 17.4605C244.176 17.4605 243.703 18.0313 243.703 19.0073C243.703 19.9912 244.176 20.5576 245.015 20.5576C245.852 20.5576 246.328 19.9873 246.328 19.0073Z" fill="white"/>
<path d="M248.339 19.9873C248.339 19.1768 248.995 18.7095 250.16 18.6431L251.486 18.5728V18.1841C251.486 17.7085 251.144 17.44 250.484 17.44C249.944 17.44 249.571 17.6221 249.463 17.9404H248.528C248.627 17.167 249.418 16.6709 250.528 16.6709C251.755 16.6709 252.447 17.2329 252.447 18.1841V21.2608H251.517V20.6279H251.441C251.286 20.8549 251.068 21.04 250.81 21.1642C250.551 21.2884 250.262 21.3473 249.971 21.3349C249.765 21.3546 249.558 21.3344 249.361 21.2757C249.165 21.217 248.984 21.1211 248.83 20.9942C248.676 20.8672 248.553 20.712 248.469 20.5386C248.384 20.3652 248.34 20.1774 248.339 19.9873ZM251.486 19.6025V19.2261L250.29 19.2964C249.616 19.3379 249.311 19.5488 249.311 19.9458C249.311 20.3511 249.693 20.5869 250.218 20.5869C250.372 20.6013 250.528 20.587 250.676 20.5449C250.823 20.5028 250.96 20.4338 251.079 20.3419C251.197 20.2501 251.294 20.1373 251.364 20.0103C251.434 19.8833 251.475 19.7446 251.486 19.6025Z" fill="white"/>
<path d="M253.717 19.0073C253.717 17.5845 254.512 16.6831 255.748 16.6831C256.054 16.6702 256.358 16.7376 256.624 16.8775C256.89 17.0173 257.107 17.224 257.249 17.4731H257.322V15H258.288V21.2607H257.362V20.5493H257.286C257.132 20.7968 256.907 21.0008 256.636 21.1393C256.365 21.2778 256.058 21.3455 255.749 21.3349C254.503 21.335 253.717 20.4336 253.717 19.0073ZM254.715 19.0073C254.715 19.9624 255.204 20.5371 256.022 20.5371C256.837 20.5371 257.34 19.9541 257.34 19.0112C257.34 18.0728 256.831 17.4815 256.022 17.4815C255.209 17.4815 254.715 18.0601 254.715 19.0073Z" fill="white"/>
<path d="M262.284 19.0073C262.253 18.7114 262.29 18.4129 262.392 18.1308C262.494 17.8487 262.659 17.5894 262.876 17.3694C263.094 17.1494 263.359 16.9736 263.654 16.8534C263.95 16.7331 264.269 16.671 264.592 16.671C264.915 16.671 265.235 16.7331 265.53 16.8534C265.826 16.9736 266.091 17.1494 266.308 17.3694C266.525 17.5894 266.69 17.8487 266.792 18.1308C266.894 18.4129 266.931 18.7114 266.9 19.0073C266.932 19.3036 266.895 19.6025 266.794 19.8851C266.692 20.1676 266.527 20.4274 266.31 20.6478C266.092 20.8682 265.827 21.0444 265.531 21.1649C265.236 21.2854 264.916 21.3477 264.592 21.3477C264.269 21.3477 263.949 21.2854 263.653 21.1649C263.357 21.0444 263.092 20.8682 262.875 20.6478C262.657 20.4274 262.493 20.1676 262.391 19.8851C262.289 19.6025 262.253 19.3036 262.284 19.0073ZM265.907 19.0073C265.907 18.0313 265.43 17.4605 264.594 17.4605C263.754 17.4605 263.282 18.0313 263.282 19.0073C263.282 19.9912 263.754 20.5576 264.594 20.5576C265.43 20.5576 265.907 19.9873 265.907 19.0073Z" fill="white"/>
<path d="M268.196 16.7578H269.126V17.4731H269.199C269.321 17.2162 269.528 17.0009 269.789 16.8571C270.051 16.7132 270.355 16.6482 270.659 16.6709C270.897 16.6544 271.136 16.6875 271.359 16.7676C271.581 16.8477 271.781 16.9728 271.944 17.1336C272.107 17.2944 272.228 17.4869 272.299 17.6967C272.37 17.9065 272.388 18.1283 272.353 18.3457V21.2607H271.387V18.5689C271.387 17.8452 271.046 17.4854 270.331 17.4854C270.169 17.4784 270.008 17.5037 269.858 17.5596C269.708 17.6154 269.573 17.7004 269.462 17.8088C269.351 17.9172 269.267 18.0464 269.215 18.1875C269.163 18.3286 269.145 18.4784 269.162 18.6265V21.2607H268.196V16.7578Z" fill="white"/>
<path d="M277.811 15.6367V16.7783H278.872V17.5269H277.811V19.8423C277.811 20.314 278.023 20.5205 278.503 20.5205C278.627 20.5202 278.75 20.5133 278.872 20.5V21.2402C278.698 21.2688 278.523 21.284 278.346 21.2856C277.272 21.2856 276.844 20.938 276.844 20.0698V17.5268H276.067V16.7783H276.844V15.6367H277.811Z" fill="white"/>
<path d="M280.191 15H281.149V17.4815H281.225C281.354 17.2221 281.566 17.0055 281.833 16.8612C282.1 16.7168 282.409 16.6518 282.717 16.6748C282.954 16.6629 283.191 16.6993 283.411 16.7814C283.631 16.8634 283.828 16.9891 283.989 17.1494C284.15 17.3098 284.271 17.5008 284.343 17.709C284.414 17.9171 284.435 18.1372 284.403 18.3535V21.2607H283.436V18.5728C283.436 17.8535 283.072 17.4893 282.39 17.4893C282.224 17.4767 282.057 17.4977 281.9 17.5508C281.744 17.6038 281.602 17.6877 281.485 17.7964C281.367 17.9051 281.277 18.0362 281.221 18.1803C281.164 18.3244 281.142 18.4782 281.157 18.6308V21.2607H280.191L280.191 15Z" fill="white"/>
<path d="M290.035 20.0449C289.904 20.4565 289.62 20.8125 289.232 21.0506C288.844 21.2888 288.378 21.3939 287.915 21.3477C287.592 21.3555 287.272 21.2987 286.975 21.1811C286.679 21.0636 286.414 20.8882 286.199 20.6671C285.984 20.4459 285.824 20.1844 285.73 19.9005C285.635 19.6167 285.61 19.3174 285.654 19.0234C285.611 18.7286 285.637 18.4286 285.731 18.144C285.825 17.8593 285.985 17.5965 286.198 17.3734C286.412 17.1504 286.676 16.9722 286.971 16.851C287.267 16.7298 287.587 16.6684 287.91 16.6709C289.272 16.6709 290.094 17.5269 290.094 18.9409V19.251H286.638V19.3008C286.622 19.466 286.645 19.6324 286.704 19.7891C286.763 19.9459 286.856 20.0896 286.979 20.211C287.102 20.3325 287.251 20.429 287.417 20.4944C287.582 20.5598 287.761 20.5926 287.941 20.5908C288.172 20.6163 288.406 20.578 288.614 20.4808C288.821 20.3836 288.992 20.2319 289.106 20.0449L290.035 20.0449ZM286.638 18.5938H289.11C289.122 18.4426 289.1 18.2908 289.044 18.1481C288.989 18.0054 288.902 17.8749 288.788 17.7651C288.675 17.6552 288.537 17.5684 288.385 17.5102C288.233 17.452 288.07 17.4238 287.905 17.4273C287.738 17.4253 287.572 17.4542 287.417 17.5121C287.263 17.5701 287.122 17.6559 287.004 17.7646C286.886 17.8734 286.793 18.0027 286.73 18.1451C286.667 18.2875 286.635 18.4401 286.638 18.5938Z" fill="white"/>
<defs>
<linearGradient id="paint0_linear_876_17" x1="28.8308" y1="15.5785" x2="12.0484" y2="32.3609" gradientUnits="userSpaceOnUse">
<stop stop-color="#00A0FF"/>
<stop offset="0.00657" stop-color="#00A1FF"/>
<stop offset="0.2601" stop-color="#00BEFF"/>
<stop offset="0.5122" stop-color="#00D2FF"/>
<stop offset="0.7604" stop-color="#00DFFF"/>
<stop offset="1" stop-color="#00E3FF"/>
</linearGradient>
<linearGradient id="paint1_linear_876_17" x1="40.8654" y1="26.8701" x2="16.6685" y2="26.8701" gradientUnits="userSpaceOnUse">
<stop stop-color="#FFE000"/>
<stop offset="0.4087" stop-color="#FFBD00"/>
<stop offset="0.7754" stop-color="#FFA500"/>
<stop offset="1" stop-color="#FF9C00"/>
</linearGradient>
<linearGradient id="paint2_linear_876_17" x1="31.858" y1="29.1647" x2="9.0997" y2="51.923" gradientUnits="userSpaceOnUse">
<stop stop-color="#FF3A44"/>
<stop offset="1" stop-color="#C31162"/>
</linearGradient>
<linearGradient id="paint3_linear_876_17" x1="14.3284" y1="7.04489" x2="24.4909" y2="17.2074" gradientUnits="userSpaceOnUse">
<stop stop-color="#32A071"/>
<stop offset="0.0685" stop-color="#2DA771"/>
<stop offset="0.4762" stop-color="#15CF74"/>
<stop offset="0.8009" stop-color="#06E775"/>
<stop offset="1" stop-color="#00F076"/>
</linearGradient>
</defs>
</svg>
