<svg width="1236" height="478" viewBox="0 0 1236 478" fill="none" xmlns="http://www.w3.org/2000/svg">
<g clip-path="url(#clip0_889_827)">
<path d="M0 -83.8732C195.963 -4.81311 301.595 99.4577 362.516 184.759C413.3 255.874 412.399 284.965 466.324 338.023C583.347 453.157 807.516 532.553 916.162 433.611C969.68 384.872 949.883 323.107 975.482 206.181C998.512 100.998 1058.06 -43.6646 1224.29 -200.884" stroke="white" stroke-opacity="0.05" stroke-width="5" stroke-miterlimit="10"/>
<path d="M0.394287 -58.3656C191.001 9.58039 295.576 107.674 356.465 187.504C407.698 254.694 411.864 281.562 469.142 333.708C589.299 443.1 799.823 519.258 908.62 426.939C964.662 379.391 951.913 318.682 981.908 202.099C1008.32 99.4612 1069.07 -42.7282 1232.45 -198.537" stroke="white" stroke-opacity="0.05" stroke-width="5" stroke-miterlimit="10"/>
<path d="M0.784576 -32.8615C186.032 23.9739 289.631 115.915 350.422 190.25C402.209 253.577 411.233 278.163 471.967 329.393C594.992 433.169 792.461 506.141 901.092 420.271C959.777 373.878 953.858 314.318 988.343 198.021C1018.02 97.9523 1080.1 -41.7811 1240.62 -196.173" stroke="white" stroke-opacity="0.05" stroke-width="5" stroke-miterlimit="10"/>
<path d="M1.17886 -7.35403C181.066 38.3709 283.793 124.181 344.382 193.017C396.791 252.528 410.504 274.788 474.81 325.075C600.461 423.38 785.421 493.221 893.575 413.599C955.026 368.365 955.719 310.003 994.794 193.939C1027.61 96.4644 1091.15 -40.834 1248.78 -193.819" stroke="white" stroke-opacity="0.05" stroke-width="5" stroke-miterlimit="10"/>
<path d="M1.56915 18.1501C176.114 52.7574 278.07 132.446 338.338 195.745C391.461 251.535 409.71 271.445 477.613 320.76C605.67 413.737 778.632 480.513 886.023 406.927C950.364 362.842 957.441 305.716 1001.21 189.858C1037.05 94.9838 1102.16 -39.8905 1256.92 -191.448" stroke="white" stroke-opacity="0.05" stroke-width="5" stroke-miterlimit="10"/>
<path d="M1.96365 43.6541C171.134 67.1509 272.483 140.716 332.298 198.491C386.248 250.602 408.794 268.151 480.442 316.442C610.711 404.252 772.126 468.021 878.492 400.258C945.84 357.35 959.051 301.451 1007.64 185.776C1046.39 93.4995 1113.19 -38.9434 1265.09 -189.112" stroke="white" stroke-opacity="0.05" stroke-width="5" stroke-miterlimit="10"/>
<path d="M2.3497 69.1581C166.16 81.5267 267.043 148.95 326.25 201.237C381.147 249.718 407.809 264.914 483.259 312.127C615.581 394.922 765.845 455.754 870.953 393.586C941.418 351.908 960.579 297.186 1014.07 181.698C1055.62 92.0012 1124.22 -37.9963 1273.24 -186.755" stroke="white" stroke-opacity="0.05" stroke-width="5" stroke-miterlimit="10"/>
<path d="M2.76007 94.6657C161.211 95.9344 261.796 157.145 320.226 203.983C376.211 248.863 406.792 261.748 486.1 307.812C620.33 385.752 759.8 443.711 863.438 386.914C937.129 346.533 961.992 292.913 1020.52 177.617C1064.74 90.4852 1135.24 -37.0386 1281.41 -184.402" stroke="white" stroke-opacity="0.05" stroke-width="5" stroke-miterlimit="10"/>
<path d="M3.13828 120.17C156.229 110.328 256.701 165.262 314.17 206.732C371.41 248.022 405.655 258.68 488.913 303.494C624.945 376.737 753.91 431.894 855.891 380.246C932.917 341.246 963.258 288.605 1026.95 173.535C1073.77 88.9373 1146.27 -36.1057 1289.59 -182.048" stroke="white" stroke-opacity="0.05" stroke-width="5" stroke-miterlimit="10"/>
<path d="M3.52856 145.663C151.263 124.711 251.806 173.263 308.127 209.467C366.755 247.153 404.487 255.648 491.734 299.168C629.455 367.86 748.166 420.281 848.356 373.563C928.792 336.058 964.422 284.244 1033.38 169.443C1082.69 87.34 1157.3 -35.1692 1297.72 -179.705" stroke="white" stroke-opacity="0.05" stroke-width="5" stroke-miterlimit="10"/>
<path d="M3.92285 171.181C146.315 139.115 247.105 181.15 302.09 212.224C362.291 246.248 403.28 252.747 494.563 294.86C633.909 359.149 742.561 408.906 840.825 366.906C924.766 331.026 965.473 279.845 1039.81 165.372C1091.54 85.7214 1168.33 -34.2115 1305.89 -177.334" stroke="white" stroke-opacity="0.05" stroke-width="5" stroke-miterlimit="10"/>
<path d="M4.31311 196.685C141.327 153.505 242.581 188.858 296.046 214.97C357.992 245.227 402.045 249.934 497.384 290.545C638.306 350.565 737.054 397.721 833.291 360.234C920.814 326.142 966.415 275.364 1046.25 161.294C1100.31 84.0428 1179.35 -33.268 1314.04 -174.984" stroke="white" stroke-opacity="0.05" stroke-width="5" stroke-miterlimit="10"/>
<path d="M4.70764 222.193C136.362 167.898 238.216 196.367 290.007 217.719C353.86 244.043 400.754 247.216 500.213 286.23C642.672 342.112 731.622 386.734 825.763 353.562C916.922 321.439 967.258 270.802 1052.68 157.212C1109.01 82.3113 1190.38 -32.3209 1322.21 -172.63" stroke="white" stroke-opacity="0.05" stroke-width="5" stroke-miterlimit="10"/>
<path d="M5.10172 247.697C131.399 182.292 233.981 203.658 283.967 220.465C349.873 242.626 399.456 244.601 503.031 281.912C647.006 333.775 726.233 375.913 818.225 346.893C913.105 316.944 967.995 266.14 1059.11 153.13C1117.66 80.5196 1201.41 -31.3844 1330.37 -170.266" stroke="white" stroke-opacity="0.05" stroke-width="5" stroke-miterlimit="10"/>
<path d="M5.48792 273.201C126.425 196.682 229.824 210.711 277.905 223.211C345.97 240.901 398.121 242.085 505.845 277.597C651.328 325.556 720.856 365.301 810.679 340.221C909.311 312.682 968.639 261.377 1065.53 149.038C1126.24 78.6572 1212.42 -30.4408 1338.51 -167.934" stroke="white" stroke-opacity="0.05" stroke-width="5" stroke-miterlimit="10"/>
<path d="M5.88226 298.709C121.477 211.075 225.71 217.525 271.879 225.957C342.156 238.792 396.813 239.672 508.684 273.279C655.669 317.452 715.509 354.837 803.163 333.553C905.575 308.678 969.227 256.514 1071.98 144.971C1134.83 76.7524 1223.47 -29.4832 1346.69 -165.566" stroke="white" stroke-opacity="0.05" stroke-width="5" stroke-miterlimit="10"/>
<path d="M6.29266 324.213C116.51 225.469 222.071 236.883 265.855 228.706C337.472 215.327 395.506 237.36 511.529 268.964C660.033 309.423 710.125 344.529 795.63 326.881C901.837 304.971 969.733 251.507 1078.42 140.889C1143.36 74.7841 1234.49 -28.5361 1354.85 -163.198" stroke="white" stroke-opacity="0.05" stroke-width="5" stroke-miterlimit="10"/>
<path d="M6.66684 349.717C111.528 239.862 218.346 241.018 259.795 231.452C332.443 214.687 394.163 235.145 514.334 264.649C664.41 301.507 704.676 334.373 788.097 320.209C898.088 301.557 970.178 246.393 1084.85 136.8C1151.88 72.7415 1245.52 -27.5996 1363.01 -160.866" stroke="white" stroke-opacity="0.05" stroke-width="5" stroke-miterlimit="10"/>
<path d="M7.0571 375.224C106.558 254.252 214.133 244.746 253.752 234.198C327.707 214.51 392.843 233.028 517.159 260.348C668.811 293.659 699.158 324.333 780.562 313.558C894.309 298.5 970.572 241.17 1091.28 132.743C1160.39 70.6706 1256.55 -26.6349 1371.17 -158.488" stroke="white" stroke-opacity="0.05" stroke-width="5" stroke-miterlimit="10"/>
<path d="M7.4516 400.728C101.593 268.646 208.16 242.764 247.715 236.943C325.628 225.504 391.549 230.999 519.987 256.026C673.262 285.877 693.55 314.396 773.035 306.879C890.474 295.761 970.927 235.777 1097.73 128.644C1168.91 68.4973 1267.59 -25.6984 1379.33 -156.152" stroke="white" stroke-opacity="0.05" stroke-width="5" stroke-miterlimit="10"/>
<path d="M7.8457 426.232C96.6267 283.039 203.237 248.764 241.672 239.693C320.694 221.044 390.261 229.063 522.809 251.708C677.74 278.166 687.814 304.568 765.5 300.207C886.554 293.415 971.254 230.307 1104.16 124.573C1177.41 66.2886 1278.61 -24.7442 1387.49 -153.788" stroke="white" stroke-opacity="0.05" stroke-width="5" stroke-miterlimit="10"/>
<path d="M8.23596 451.74C91.6605 297.433 197.974 254.772 235.628 242.439C315.304 216.33 388.994 227.211 525.634 247.386C682.268 270.512 681.939 294.818 757.969 293.532C882.517 291.411 971.553 224.688 1110.59 120.488C1185.93 64.0305 1289.63 -23.8077 1395.65 -151.441" stroke="white" stroke-opacity="0.05" stroke-width="5" stroke-miterlimit="10"/>
</g>
<defs>
<clipPath id="clip0_889_827">
<rect width="1236" height="478" fill="white"/>
</clipPath>
</defs>
</svg>
