<svg width="115" height="23" viewBox="0 0 115 23" fill="none" xmlns="http://www.w3.org/2000/svg">
<path d="M8.09856 18.0071C6.93153 18.0071 5.89676 17.8612 4.99426 17.5694C4.10731 17.2623 3.36041 16.817 2.75355 16.2334C2.1467 15.6499 1.68766 14.9205 1.37646 14.0452C1.08081 13.1546 0.932983 12.1257 0.932983 10.9587V3.12712C0.932983 2.52823 1.08859 2.07523 1.3998 1.76811C1.71101 1.46099 2.16226 1.30743 2.75355 1.30743C3.32929 1.30743 3.77276 1.46099 4.08397 1.76811C4.39518 2.07523 4.55078 2.52823 4.55078 3.12712V10.9817C4.55078 12.3023 4.85421 13.3005 5.46107 13.9761C6.06793 14.6364 6.94709 14.9666 8.09856 14.9666C9.25003 14.9666 10.1214 14.6364 10.7127 13.9761C11.3196 13.3005 11.623 12.3023 11.623 10.9817V3.12712C11.623 2.52823 11.7786 2.07523 12.0898 1.76811C12.401 1.46099 12.8445 1.30743 13.4202 1.30743C13.996 1.30743 14.4317 1.46099 14.7273 1.76811C15.0385 2.07523 15.1941 2.52823 15.1941 3.12712V10.9587C15.1941 12.5096 14.9218 13.8149 14.3772 14.8744C13.8481 15.9186 13.0546 16.7018 11.9964 17.2239C10.9539 17.746 9.6546 18.0071 8.09856 18.0071Z" fill="#161639"/>
<path d="M19.8661 17.961C19.2903 17.961 18.8469 17.8074 18.5357 17.5003C18.24 17.1932 18.0922 16.7555 18.0922 16.1874V8.01032C18.0922 7.44215 18.24 7.01218 18.5357 6.72042C18.8469 6.4133 19.2748 6.25974 19.8194 6.25974C20.3796 6.25974 20.8075 6.4133 21.1031 6.72042C21.3988 7.01218 21.5466 7.44215 21.5466 8.01032V9.32326L21.2899 8.56314C21.6477 7.81069 22.1768 7.23484 22.877 6.83559C23.5928 6.42098 24.4019 6.21367 25.3044 6.21367C26.2225 6.21367 26.9772 6.39026 27.5685 6.74345C28.1598 7.08128 28.6033 7.60339 28.8989 8.30976C29.1946 9.00078 29.3424 9.88375 29.3424 10.9587V16.1874C29.3424 16.7555 29.1868 17.1932 28.8756 17.5003C28.5799 17.8074 28.1442 17.961 27.5685 17.961C27.0083 17.961 26.5726 17.8074 26.2614 17.5003C25.9658 17.1932 25.8179 16.7555 25.8179 16.1874V11.1199C25.8179 10.3368 25.6701 9.77626 25.3745 9.43843C25.0944 9.08524 24.6587 8.90865 24.0674 8.90865C23.3205 8.90865 22.7214 9.13899 22.2702 9.59966C21.8345 10.0603 21.6166 10.6746 21.6166 11.4424V16.1874C21.6166 17.3698 21.0331 17.961 19.8661 17.961Z" fill="#161639"/>
<path d="M33.7941 17.961C33.2183 17.961 32.7748 17.8074 32.4636 17.5003C32.168 17.1932 32.0202 16.7555 32.0202 16.1874V8.01032C32.0202 7.44215 32.168 7.01218 32.4636 6.72042C32.7748 6.4133 33.2028 6.25974 33.7474 6.25974C34.3076 6.25974 34.7355 6.4133 35.0311 6.72042C35.3268 7.01218 35.4746 7.44215 35.4746 8.01032V9.48449L35.2178 8.56314C35.529 7.85676 36.0114 7.28859 36.665 6.85862C37.3185 6.42865 38.0887 6.21367 38.9757 6.21367C39.8626 6.21367 40.6017 6.42098 41.193 6.83559C41.7843 7.2502 42.2045 7.88747 42.4534 8.74741H42.1267C42.469 7.96425 42.9903 7.35001 43.6905 6.90469C44.4063 6.44401 45.2232 6.21367 46.1413 6.21367C47.0282 6.21367 47.7518 6.39026 48.3119 6.74345C48.8877 7.08128 49.3156 7.60339 49.5957 8.30976C49.8758 9.00078 50.0158 9.88375 50.0158 10.9587V16.1874C50.0158 16.7555 49.8602 17.1932 49.549 17.5003C49.2533 17.8074 48.8254 17.961 48.2653 17.961C47.6895 17.961 47.246 17.8074 46.9348 17.5003C46.6392 17.1932 46.4914 16.7555 46.4914 16.1874V11.0738C46.4914 10.3214 46.3669 9.77626 46.1179 9.43843C45.8845 9.08524 45.4799 8.90865 44.9042 8.90865C44.2351 8.90865 43.7138 9.13899 43.3404 9.59966C42.9669 10.0603 42.7802 10.713 42.7802 11.5576V16.1874C42.7802 16.7555 42.6246 17.1932 42.3134 17.5003C42.0177 17.8074 41.5898 17.961 41.0297 17.961C40.4695 17.961 40.0338 17.8074 39.7226 17.5003C39.4114 17.1932 39.2558 16.7555 39.2558 16.1874V11.0738C39.2558 10.3214 39.1313 9.77626 38.8823 9.43843C38.6489 9.08524 38.2443 8.90865 37.6686 8.90865C36.9995 8.90865 36.4782 9.13899 36.1048 9.59966C35.7313 10.0603 35.5446 10.713 35.5446 11.5576V16.1874C35.5446 17.3698 34.9611 17.961 33.7941 17.961Z" fill="#161639"/>
<path d="M58.6675 18.0071C57.3138 18.0071 56.1467 17.769 55.1664 17.293C54.2017 16.8016 53.4548 16.1183 52.9257 15.243C52.4122 14.3523 52.1555 13.3081 52.1555 12.1104C52.1555 10.9433 52.4044 9.92214 52.9024 9.04685C53.4003 8.1562 54.0928 7.46518 54.9797 6.97379C55.8822 6.46704 56.9014 6.21367 58.0373 6.21367C58.862 6.21367 59.6089 6.35187 60.278 6.62828C60.9471 6.88933 61.5229 7.27323 62.0052 7.77998C62.4876 8.27137 62.8533 8.87793 63.1022 9.59966C63.3512 10.306 63.4757 11.0969 63.4757 11.9722C63.4757 12.2639 63.3823 12.4866 63.1956 12.6401C63.0089 12.7784 62.7366 12.8475 62.3787 12.8475H55.0497V11.0508H60.9316L60.5581 11.3733C60.5581 10.7437 60.4648 10.2216 60.278 9.80697C60.0913 9.377 59.819 9.05453 59.4611 8.83954C59.1188 8.62456 58.6909 8.51707 58.1774 8.51707C57.6016 8.51707 57.1115 8.64759 56.7069 8.90865C56.3023 9.1697 55.9911 9.54592 55.7733 10.0373C55.5554 10.5287 55.4465 11.1199 55.4465 11.8109V11.9952C55.4465 13.1623 55.7188 14.0222 56.2634 14.575C56.8236 15.1278 57.6483 15.4042 58.7375 15.4042C59.111 15.4042 59.5389 15.3582 60.0213 15.266C60.5037 15.1739 60.9549 15.028 61.375 14.8284C61.7329 14.6595 62.0519 14.6057 62.332 14.6671C62.6121 14.7132 62.8299 14.8361 62.9855 15.0357C63.1411 15.2353 63.2267 15.4656 63.2423 15.7267C63.2734 15.9878 63.2189 16.2488 63.0789 16.5099C62.9389 16.7556 62.7055 16.9629 62.3787 17.1318C61.8496 17.4235 61.2506 17.6385 60.5815 17.7767C59.9279 17.9303 59.2899 18.0071 58.6675 18.0071Z" fill="#161639"/>
<path d="M69.9137 18.0071C69.229 18.0071 68.521 17.9456 67.7897 17.8228C67.0739 17.6999 66.4204 17.4926 65.8291 17.2009C65.5179 17.0473 65.2923 16.8554 65.1522 16.625C65.0277 16.3793 64.9733 16.1336 64.9888 15.8879C65.0044 15.6422 65.0822 15.4196 65.2222 15.22C65.3778 15.0203 65.5723 14.8898 65.8057 14.8284C66.0547 14.7516 66.327 14.7746 66.6227 14.8975C67.2607 15.1585 67.8442 15.3428 68.3732 15.4503C68.9023 15.5578 69.4235 15.6115 69.937 15.6115C70.6061 15.6115 71.0885 15.5117 71.3842 15.3121C71.6954 15.0971 71.851 14.8207 71.851 14.4829C71.851 14.1757 71.7498 13.9454 71.5475 13.7918C71.3453 13.6383 71.0496 13.5308 70.6606 13.4694L68.2098 13.0317C67.2451 12.8628 66.4982 12.5173 65.9691 11.9952C65.4556 11.4577 65.1989 10.7744 65.1989 9.94517C65.1989 9.17737 65.4167 8.51707 65.8524 7.96425C66.2881 7.39608 66.8872 6.96611 67.6497 6.67435C68.4277 6.36723 69.3068 6.21367 70.2871 6.21367C70.9874 6.21367 71.6331 6.27509 72.2244 6.39794C72.8157 6.52079 73.3837 6.72042 73.9283 6.99683C74.2084 7.13503 74.4029 7.3193 74.5118 7.54964C74.6363 7.77998 74.6752 8.018 74.6285 8.26369C74.5974 8.50939 74.504 8.73205 74.3484 8.93168C74.1928 9.13131 73.9905 9.26183 73.7416 9.32326C73.5082 9.38468 73.2359 9.35397 72.9246 9.23112C72.4267 9.00078 71.9677 8.83954 71.5475 8.74741C71.1274 8.63992 70.7228 8.58617 70.3338 8.58617C69.6336 8.58617 69.1279 8.70134 68.8167 8.93168C68.5055 9.14666 68.3499 9.42307 68.3499 9.7609C68.3499 10.022 68.4355 10.2446 68.6066 10.4289C68.7934 10.5978 69.0734 10.713 69.4469 10.7744L71.8977 11.212C72.9091 11.381 73.6793 11.7188 74.2084 12.2255C74.7374 12.7169 75.002 13.3926 75.002 14.2525C75.002 15.4196 74.5351 16.3409 73.6015 17.0166C72.6835 17.6769 71.4542 18.0071 69.9137 18.0071Z" fill="#161639"/>
<path d="M81.4017 18.0071C80.717 18.0071 80.009 17.9456 79.2777 17.8228C78.5619 17.6999 77.9084 17.4926 77.3171 17.2009C77.0059 17.0473 76.7802 16.8554 76.6402 16.625C76.5157 16.3793 76.4612 16.1336 76.4768 15.8879C76.4924 15.6422 76.5702 15.4196 76.7102 15.22C76.8658 15.0203 77.0603 14.8898 77.2937 14.8284C77.5427 14.7516 77.815 14.7746 78.1106 14.8975C78.7486 15.1585 79.3321 15.3428 79.8612 15.4503C80.3903 15.5578 80.9115 15.6115 81.425 15.6115C82.0941 15.6115 82.5765 15.5117 82.8721 15.3121C83.1833 15.0971 83.3389 14.8207 83.3389 14.4829C83.3389 14.1757 83.2378 13.9454 83.0355 13.7918C82.8332 13.6383 82.5376 13.5308 82.1486 13.4694L79.6978 13.0317C78.7331 12.8628 77.9862 12.5173 77.4571 11.9952C76.9436 11.4577 76.6869 10.7744 76.6869 9.94517C76.6869 9.17737 76.9047 8.51707 77.3404 7.96425C77.7761 7.39608 78.3752 6.96611 79.1376 6.67435C79.9156 6.36723 80.7948 6.21367 81.7751 6.21367C82.4753 6.21367 83.1211 6.27509 83.7124 6.39794C84.3037 6.52079 84.8717 6.72042 85.4163 6.99683C85.6964 7.13503 85.8909 7.3193 85.9998 7.54964C86.1243 7.77998 86.1632 8.018 86.1165 8.26369C86.0854 8.50939 85.992 8.73205 85.8364 8.93168C85.6808 9.13131 85.4785 9.26183 85.2295 9.32326C84.9961 9.38468 84.7238 9.35397 84.4126 9.23112C83.9147 9.00078 83.4557 8.83954 83.0355 8.74741C82.6154 8.63992 82.2108 8.58617 81.8218 8.58617C81.1216 8.58617 80.6159 8.70134 80.3047 8.93168C79.9935 9.14666 79.8379 9.42307 79.8379 9.7609C79.8379 10.022 79.9234 10.2446 80.0946 10.4289C80.2813 10.5978 80.5614 10.713 80.9349 10.7744L83.3856 11.212C84.3971 11.381 85.1673 11.7188 85.6963 12.2255C86.2254 12.7169 86.4899 13.3926 86.4899 14.2525C86.4899 15.4196 86.0231 16.3409 85.0895 17.0166C84.1714 17.6769 82.9422 18.0071 81.4017 18.0071Z" fill="#161639"/>
<path d="M90.2755 17.938C89.6998 17.938 89.2563 17.7767 88.9451 17.4542C88.6494 17.1164 88.5016 16.6481 88.5016 16.0492V8.17156C88.5016 7.55732 88.6494 7.08896 88.9451 6.76649C89.2563 6.42865 89.6998 6.25974 90.2755 6.25974C90.8357 6.25974 91.2636 6.42865 91.5592 6.76649C91.8704 7.08896 92.026 7.55732 92.026 8.17156V16.0492C92.026 16.6481 91.8782 17.1164 91.5826 17.4542C91.2869 17.7767 90.8512 17.938 90.2755 17.938ZM90.2755 4.37095C89.622 4.37095 89.1162 4.22507 88.7583 3.93331C88.416 3.62619 88.2449 3.19622 88.2449 2.6434C88.2449 2.07523 88.416 1.64527 88.7583 1.3535C89.1162 1.04638 89.622 0.892822 90.2755 0.892822C90.929 0.892822 91.427 1.04638 91.7693 1.3535C92.1116 1.64527 92.2828 2.07523 92.2828 2.6434C92.2828 3.19622 92.1116 3.62619 91.7693 3.93331C91.427 4.22507 90.929 4.37095 90.2755 4.37095Z" fill="#161639"/>
<path d="M97.4079 17.961C96.8321 17.961 96.3887 17.8074 96.0775 17.5003C95.7818 17.1932 95.634 16.7555 95.634 16.1874V9.04685H94.7937C94.358 9.04685 94.0157 8.93168 93.7667 8.70134C93.5333 8.471 93.4166 8.1562 93.4166 7.75695C93.4166 7.32698 93.5333 7.0045 93.7667 6.78952C94.0157 6.55918 94.358 6.44401 94.7937 6.44401H96.661L95.634 7.36537V6.65132C95.634 5.00822 96.0463 3.77975 96.871 2.96588C97.7113 2.15201 98.9406 1.66062 100.559 1.49171L101.306 1.4226C101.71 1.39189 102.029 1.45332 102.263 1.60688C102.512 1.76044 102.675 1.96006 102.753 2.20576C102.831 2.45146 102.846 2.70483 102.8 2.96588C102.753 3.21158 102.644 3.43424 102.473 3.63387C102.317 3.81814 102.099 3.91795 101.819 3.93331L101.492 3.95634C100.652 4.01777 100.053 4.21739 99.6953 4.55522C99.3374 4.8777 99.1584 5.37677 99.1584 6.05243V6.83559L98.715 6.44401H100.816C101.267 6.44401 101.609 6.55918 101.843 6.78952C102.076 7.0045 102.193 7.32698 102.193 7.75695C102.193 8.1562 102.076 8.471 101.843 8.70134C101.609 8.93168 101.267 9.04685 100.816 9.04685H99.1584V16.1874C99.1584 17.3698 98.5749 17.961 97.4079 17.961Z" fill="#161639"/>
<path d="M106.513 22.1071C106.109 22.1071 105.774 21.9996 105.51 21.7846C105.245 21.5696 105.09 21.2856 105.043 20.9324C104.996 20.5945 105.059 20.2337 105.23 19.8498L106.794 16.4408V17.8689L102.662 8.51707C102.507 8.11781 102.452 7.74927 102.499 7.41144C102.561 7.05825 102.732 6.78184 103.012 6.58221C103.308 6.36723 103.713 6.25974 104.226 6.25974C104.646 6.25974 104.981 6.35955 105.23 6.55918C105.494 6.74345 105.735 7.10432 105.953 7.64178L108.707 14.552H107.961L110.808 7.61874C111.026 7.09664 111.267 6.74345 111.532 6.55918C111.812 6.35955 112.185 6.25974 112.652 6.25974C113.057 6.25974 113.376 6.36723 113.609 6.58221C113.858 6.78184 114.006 7.05057 114.052 7.3884C114.115 7.72623 114.052 8.09478 113.866 8.49403L108.381 20.7711C108.147 21.2932 107.883 21.6464 107.587 21.8307C107.307 22.015 106.949 22.1071 106.513 22.1071Z" fill="#161639"/>
</svg>
