<svg width="55" height="33" viewBox="0 0 55 33" fill="none" xmlns="http://www.w3.org/2000/svg">
<path d="M31.1764 12.1391L29.6993 10.662L27.0897 8.05736L24.3964 5.36407L21.7869 2.75448L19.1822 5.36407L21.7869 7.96872L28.5668 14.7487C28.7968 14.9775 28.9794 15.2495 29.1039 15.549C29.2285 15.8486 29.2926 16.1698 29.2926 16.4942C29.2926 16.8186 29.2285 17.1398 29.1039 17.4393C28.9794 17.7389 28.7968 18.0109 28.5668 18.2396L27.0897 19.7168L24.4851 22.3263L27.0897 24.931L29.6993 22.3263L31.1764 20.8492C32.3313 19.6941 32.9801 18.1276 32.9801 16.4942C32.9801 14.8608 32.3313 13.2942 31.1764 12.1391ZM19.1871 27.6194L18.2467 28.5598C18.0179 28.7898 17.7459 28.9723 17.4464 29.0969C17.1468 29.2214 16.8256 29.2855 16.5012 29.2855C16.1768 29.2855 15.8556 29.2214 15.556 29.0969C15.2565 28.9723 14.9845 28.7898 14.7558 28.5598L4.4159 18.2199C4.1859 17.9912 4.00337 17.7192 3.87883 17.4196C3.75428 17.1201 3.69016 16.7989 3.69016 16.4745C3.69016 16.1501 3.75428 15.8289 3.87883 15.5293C4.00337 15.2298 4.1859 14.9578 4.4159 14.729L14.7558 4.38917C14.9844 4.15981 15.256 3.97782 15.5551 3.85362C15.8542 3.72942 16.1749 3.66545 16.4987 3.66538V0.0119651C15.6904 0.0112777 14.8898 0.170101 14.1429 0.479336C13.396 0.78857 12.7175 1.24214 12.1462 1.81406L1.80631 12.1539C1.23345 12.7248 0.778925 13.4031 0.468783 14.15C0.158641 14.8969 -0.00100708 15.6977 -0.00100708 16.5065C-0.00100708 17.3152 0.158641 18.116 0.468783 18.8629C0.778925 19.6099 1.23345 20.2882 1.80631 20.8591L12.1462 31.1989C13.3011 32.3523 14.8665 33.0001 16.4987 33.0001C18.1309 33.0001 19.6964 32.3523 20.8513 31.1989L21.7918 30.2585L24.4014 27.6489L21.7918 25.0443L19.1871 27.6194Z" fill="url(#paint0_linear_876_96)"/>
<path d="M52.3436 12.1391L42.0038 1.79923C40.8491 0.64736 39.2846 0.000488281 37.6536 0.000488281C36.0226 0.000488281 34.4582 0.64736 33.3035 1.79923L29.7535 5.34925L32.3631 7.95883L34.9727 5.34925L35.9082 4.40881C36.137 4.17881 36.4089 3.99629 36.7085 3.87174C37.008 3.74719 37.3292 3.68307 37.6536 3.68307C37.978 3.68307 38.2993 3.74719 38.5988 3.87174C38.8984 3.99629 39.1703 4.17881 39.3991 4.40881L49.739 14.7487C49.969 14.9774 50.1515 15.2494 50.276 15.549C50.4006 15.8485 50.4647 16.1697 50.4647 16.4941C50.4647 16.8185 50.4006 17.1397 50.276 17.4393C50.1515 17.7388 49.969 18.0108 49.739 18.2396L39.3991 28.5795C39.1705 28.8088 38.8988 28.9908 38.5997 29.115C38.3006 29.2392 37.98 29.3032 37.6561 29.3032V32.9911C38.4641 32.9939 39.2645 32.836 40.0109 32.5266C40.7572 32.2172 41.4347 31.7626 42.0038 31.189L52.3436 20.8492C53.4985 19.6941 54.1473 18.1275 54.1473 16.4941C54.1473 14.8607 53.4985 13.2942 52.3436 12.1391ZM29.6944 22.3312L27.0848 19.7216L25.6077 18.2445C25.3777 18.0157 25.1952 17.7438 25.0706 17.4442C24.9461 17.1447 24.882 16.8235 24.882 16.4991C24.882 16.1746 24.9461 15.8534 25.0706 15.5539C25.1952 15.2543 25.3777 14.9824 25.6077 14.7536L27.0848 13.2765L29.6895 10.6669L27.0799 8.06222L24.4753 10.6669L22.9981 12.144C21.8448 13.2989 21.1969 14.8644 21.1969 16.4966C21.1969 18.1288 21.8448 19.6943 22.9981 20.8492L27.0898 24.9408L29.7732 27.6242L32.3828 30.2338L34.9874 27.6242L29.6944 22.3312Z" fill="url(#paint1_linear_876_96)"/>
<path d="M41.7625 12.139L31.4226 1.79916C30.2671 0.646992 28.7018 0 27.07 0C25.4382 0 23.873 0.646992 22.7175 1.79916L21.777 2.7396L19.1724 5.34918L12.3973 12.1242C11.8244 12.6951 11.3699 13.3735 11.0598 14.1204C10.7496 14.8673 10.59 15.6681 10.59 16.4768C10.59 17.2856 10.7496 18.0864 11.0598 18.8333C11.3699 19.5802 11.8244 20.2585 12.3973 20.8294L19.1724 27.6045L21.777 30.2141L22.7175 31.1545C23.8724 32.3079 25.4378 32.9557 27.07 32.9557C28.7022 32.9557 30.2677 32.3079 31.4226 31.1545L32.3631 30.2141L34.9677 27.6045L41.7477 20.8294C42.8973 19.6764 43.5441 18.1155 43.5469 16.4873C43.5497 14.8591 42.9082 13.2959 41.7625 12.139ZM39.1677 18.2395L32.3926 25.0146L29.783 27.6192L28.8278 28.5597C28.5991 28.7889 28.3275 28.9708 28.0284 29.095C27.7293 29.2191 27.4086 29.2829 27.0848 29.2829C26.761 29.2829 26.4404 29.2191 26.1413 29.095C25.8422 28.9708 25.5705 28.7889 25.3418 28.5597L15.002 18.2198C14.772 17.9911 14.5894 17.7191 14.4649 17.4195C14.3403 17.12 14.2762 16.7988 14.2762 16.4744C14.2762 16.15 14.3403 15.8288 14.4649 15.5292C14.5894 15.2297 14.772 14.9577 15.002 14.7289L21.777 7.94892L24.3866 5.34426L25.327 4.40382C25.5557 4.17456 25.8274 3.99266 26.1265 3.86855C26.4256 3.74444 26.7462 3.68056 27.07 3.68056C27.3939 3.68056 27.7145 3.74444 28.0136 3.86855C28.3127 3.99266 28.5844 4.17456 28.813 4.40382L29.7535 5.34426L32.3631 7.95383L39.1677 14.7486C39.3977 14.9774 39.5802 15.2493 39.7047 15.5489C39.8293 15.8484 39.8934 16.1697 39.8934 16.4941C39.8934 16.8185 39.8293 17.1397 39.7047 17.4392C39.5802 17.7388 39.3977 18.0108 39.1677 18.2395Z" fill="url(#paint2_linear_876_96)"/>
<path d="M21.7918 2.75448L19.1871 5.36406L18.2467 4.42363C18.018 4.19427 17.7464 4.01228 17.4473 3.88808C17.1482 3.76388 16.8275 3.69991 16.5037 3.69984V0.0119629C17.3127 0.0136956 18.1134 0.175563 18.8596 0.488236C19.6058 0.80091 20.2827 1.2582 20.8513 1.83374L21.7918 2.75448Z" fill="url(#paint3_linear_876_96)"/>
<path d="M37.6905 29.2834V32.9712C36.8819 32.9736 36.0809 32.8155 35.3337 32.5061C34.5866 32.1968 33.9083 31.7424 33.338 31.1692L32.3975 30.2287L35.0022 27.6191L35.9426 28.5596C36.1718 28.7895 36.4443 28.9719 36.7443 29.0961C37.0443 29.2203 37.3659 29.2839 37.6905 29.2834Z" fill="url(#paint4_linear_876_96)"/>
<path d="M21.7918 2.75448L19.1871 5.36406L18.2467 4.42363C18.018 4.19427 17.7464 4.01228 17.4473 3.88808C17.1482 3.76388 16.8275 3.69991 16.5037 3.69984V0.0119629C17.3127 0.0136956 18.1134 0.175563 18.8596 0.488236C19.6058 0.80091 20.2827 1.2582 20.8513 1.83374L21.7918 2.75448Z" fill="url(#paint5_linear_876_96)"/>
<path d="M27.0898 13.2617L25.6126 14.7388C25.382 14.9665 25.1991 15.2379 25.0748 15.5372C24.9505 15.8366 24.8873 16.1577 24.8889 16.4818H21.201C21.1987 15.6732 21.3568 14.8721 21.6661 14.125C21.9754 13.3779 22.4298 12.6996 23.0031 12.1292L24.4802 10.6521L27.0898 13.2617Z" fill="url(#paint6_linear_876_96)"/>
<path d="M27.0848 19.7216L28.5619 18.2445C28.7918 18.0153 28.9742 17.7428 29.0984 17.4428C29.2226 17.1429 29.2863 16.8213 29.2857 16.4966H32.9687C32.9714 17.3056 32.8141 18.1071 32.5056 18.855C32.1972 19.6029 31.7438 20.2823 31.1715 20.8541L29.6944 22.3312L27.0848 19.7216Z" fill="url(#paint7_linear_876_96)"/>
<path d="M37.6905 29.2834V32.9712C36.8819 32.9736 36.0809 32.8155 35.3337 32.5061C34.5866 32.1968 33.9083 31.7424 33.338 31.1692L32.3975 30.2287L35.0022 27.6191L35.9426 28.5596C36.1718 28.7895 36.4443 28.9719 36.7443 29.0961C37.0443 29.2203 37.3659 29.2839 37.6905 29.2834Z" fill="url(#paint8_linear_876_96)"/>
<defs>
<linearGradient id="paint0_linear_876_96" x1="16.4988" y1="0.115364" x2="16.4988" y2="31.6962" gradientUnits="userSpaceOnUse">
<stop stop-color="#00D2FF"/>
<stop offset="1" stop-color="#4F7EF7"/>
</linearGradient>
<linearGradient id="paint1_linear_876_96" x1="37.6709" y1="0.115311" x2="37.6709" y2="31.6962" gradientUnits="userSpaceOnUse">
<stop stop-color="#00D2FF"/>
<stop offset="1" stop-color="#4F7EF7"/>
</linearGradient>
<linearGradient id="paint2_linear_876_96" x1="27.0848" y1="0.115248" x2="27.0848" y2="31.6961" gradientUnits="userSpaceOnUse">
<stop stop-color="#00D2FF"/>
<stop offset="1" stop-color="#4F7EF7"/>
</linearGradient>
<linearGradient id="paint3_linear_876_96" x1="19.1477" y1="0.115361" x2="19.1477" y2="31.6962" gradientUnits="userSpaceOnUse">
<stop stop-color="#00D2FF"/>
<stop offset="1" stop-color="#4F7EF7"/>
</linearGradient>
<linearGradient id="paint4_linear_876_96" x1="35.0268" y1="0.115148" x2="35.0268" y2="31.696" gradientUnits="userSpaceOnUse">
<stop stop-color="#00D2FF"/>
<stop offset="1" stop-color="#4F7EF7"/>
</linearGradient>
<linearGradient id="paint5_linear_876_96" x1="21.9198" y1="3.86725" x2="16.9173" y2="2.2178" gradientUnits="userSpaceOnUse">
<stop stop-color="#4F7EF7" stop-opacity="0.7"/>
<stop offset="1" stop-color="#4F7EF7" stop-opacity="0"/>
</linearGradient>
<linearGradient id="paint6_linear_876_96" x1="27.3557" y1="10.3222" x2="24.17" y2="14.0347" gradientUnits="userSpaceOnUse">
<stop stop-color="#4F7EF7"/>
<stop offset="1" stop-color="#4F7EF7" stop-opacity="0"/>
</linearGradient>
<linearGradient id="paint7_linear_876_96" x1="26.814" y1="22.6611" x2="30.0046" y2="18.9535" gradientUnits="userSpaceOnUse">
<stop stop-color="#4F7EF7"/>
<stop offset="1" stop-color="#4F7EF7" stop-opacity="0"/>
</linearGradient>
<linearGradient id="paint8_linear_876_96" x1="32.7816" y1="30.0958" x2="37.2917" y2="30.3567" gradientUnits="userSpaceOnUse">
<stop stop-color="#2456C6"/>
<stop offset="1" stop-color="#2456C6" stop-opacity="0"/>
</linearGradient>
</defs>
</svg>
