<svg width="115" height="23" viewBox="0 0 115 23" fill="none" xmlns="http://www.w3.org/2000/svg">
<path d="M8.09954 18.0071C6.93251 18.0071 5.89774 17.8612 4.99523 17.5694C4.10829 17.2623 3.36139 16.817 2.75453 16.2334C2.14767 15.6499 1.68864 14.9205 1.37743 14.0452C1.08178 13.1546 0.93396 12.1257 0.93396 10.9587V3.12712C0.93396 2.52823 1.08956 2.07523 1.40077 1.76811C1.71198 1.46099 2.16323 1.30743 2.75453 1.30743C3.33027 1.30743 3.77374 1.46099 4.08495 1.76811C4.39616 2.07523 4.55176 2.52823 4.55176 3.12712V10.9817C4.55176 12.3023 4.85519 13.3005 5.46205 13.9761C6.0689 14.6364 6.94807 14.9666 8.09954 14.9666C9.25101 14.9666 10.1224 14.6364 10.7137 13.9761C11.3205 13.3005 11.624 12.3023 11.624 10.9817V3.12712C11.624 2.52823 11.7796 2.07523 12.0908 1.76811C12.402 1.46099 12.8455 1.30743 13.4212 1.30743C13.9969 1.30743 14.4326 1.46099 14.7283 1.76811C15.0395 2.07523 15.1951 2.52823 15.1951 3.12712V10.9587C15.1951 12.5096 14.9228 13.8149 14.3782 14.8744C13.8491 15.9186 13.0555 16.7018 11.9974 17.2239C10.9549 17.746 9.65558 18.0071 8.09954 18.0071Z" fill="white"/>
<path d="M19.8671 17.961C19.2913 17.961 18.8478 17.8074 18.5366 17.5003C18.241 17.1932 18.0932 16.7555 18.0932 16.1874V8.01032C18.0932 7.44215 18.241 7.01218 18.5366 6.72042C18.8478 6.4133 19.2758 6.25974 19.8204 6.25974C20.3805 6.25974 20.8085 6.4133 21.1041 6.72042C21.3998 7.01218 21.5476 7.44215 21.5476 8.01032V9.32326L21.2908 8.56314C21.6487 7.81069 22.1778 7.23484 22.878 6.83559C23.5938 6.42098 24.4029 6.21367 25.3054 6.21367C26.2235 6.21367 26.9782 6.39026 27.5695 6.74345C28.1608 7.08128 28.6042 7.60339 28.8999 8.30976C29.1955 9.00078 29.3434 9.88375 29.3434 10.9587V16.1874C29.3434 16.7555 29.1877 17.1932 28.8765 17.5003C28.5809 17.8074 28.1452 17.961 27.5695 17.961C27.0093 17.961 26.5736 17.8074 26.2624 17.5003C25.9667 17.1932 25.8189 16.7555 25.8189 16.1874V11.1199C25.8189 10.3368 25.6711 9.77626 25.3754 9.43843C25.0954 9.08524 24.6597 8.90865 24.0684 8.90865C23.3215 8.90865 22.7224 9.13899 22.2711 9.59966C21.8354 10.0603 21.6176 10.6746 21.6176 11.4424V16.1874C21.6176 17.3698 21.0341 17.961 19.8671 17.961Z" fill="white"/>
<path d="M33.795 17.961C33.2193 17.961 32.7758 17.8074 32.4646 17.5003C32.169 17.1932 32.0211 16.7555 32.0211 16.1874V8.01032C32.0211 7.44215 32.169 7.01218 32.4646 6.72042C32.7758 6.4133 33.2037 6.25974 33.7484 6.25974C34.3085 6.25974 34.7364 6.4133 35.0321 6.72042C35.3277 7.01218 35.4756 7.44215 35.4756 8.01032V9.48449L35.2188 8.56314C35.53 7.85676 36.0124 7.28859 36.6659 6.85862C37.3195 6.42865 38.0897 6.21367 38.9767 6.21367C39.8636 6.21367 40.6027 6.42098 41.194 6.83559C41.7853 7.2502 42.2054 7.88747 42.4544 8.74741H42.1276C42.47 7.96425 42.9912 7.35001 43.6915 6.90469C44.4072 6.44401 45.2242 6.21367 46.1422 6.21367C47.0292 6.21367 47.7527 6.39026 48.3129 6.74345C48.8886 7.08128 49.3166 7.60339 49.5966 8.30976C49.8767 9.00078 50.0168 9.88375 50.0168 10.9587V16.1874C50.0168 16.7555 49.8612 17.1932 49.55 17.5003C49.2543 17.8074 48.8264 17.961 48.2662 17.961C47.6905 17.961 47.247 17.8074 46.9358 17.5003C46.6402 17.1932 46.4923 16.7555 46.4923 16.1874V11.0738C46.4923 10.3214 46.3679 9.77626 46.1189 9.43843C45.8855 9.08524 45.4809 8.90865 44.9052 8.90865C44.2361 8.90865 43.7148 9.13899 43.3414 9.59966C42.9679 10.0603 42.7812 10.713 42.7812 11.5576V16.1874C42.7812 16.7555 42.6256 17.1932 42.3144 17.5003C42.0187 17.8074 41.5908 17.961 41.0306 17.961C40.4705 17.961 40.0348 17.8074 39.7236 17.5003C39.4123 17.1932 39.2567 16.7555 39.2567 16.1874V11.0738C39.2567 10.3214 39.1323 9.77626 38.8833 9.43843C38.6499 9.08524 38.2453 8.90865 37.6696 8.90865C37.0005 8.90865 36.4792 9.13899 36.1058 9.59966C35.7323 10.0603 35.5456 10.713 35.5456 11.5576V16.1874C35.5456 17.3698 34.9621 17.961 33.795 17.961Z" fill="white"/>
<path d="M58.6685 18.0071C57.3147 18.0071 56.1477 17.769 55.1674 17.293C54.2027 16.8016 53.4558 16.1183 52.9267 15.243C52.4132 14.3523 52.1565 13.3081 52.1565 12.1104C52.1565 10.9433 52.4054 9.92214 52.9034 9.04685C53.4013 8.1562 54.0937 7.46518 54.9807 6.97379C55.8832 6.46704 56.9024 6.21367 58.0383 6.21367C58.863 6.21367 59.6099 6.35187 60.279 6.62828C60.9481 6.88933 61.5238 7.27323 62.0062 7.77998C62.4886 8.27137 62.8543 8.87793 63.1032 9.59966C63.3522 10.306 63.4767 11.0969 63.4767 11.9722C63.4767 12.2639 63.3833 12.4866 63.1966 12.6401C63.0099 12.7784 62.7376 12.8475 62.3797 12.8475H55.0507V11.0508H60.9325L60.5591 11.3733C60.5591 10.7437 60.4657 10.2216 60.279 9.80697C60.0923 9.377 59.82 9.05453 59.4621 8.83954C59.1198 8.62456 58.6918 8.51707 58.1783 8.51707C57.6026 8.51707 57.1125 8.64759 56.7079 8.90865C56.3033 9.1697 55.9921 9.54592 55.7743 10.0373C55.5564 10.5287 55.4475 11.1199 55.4475 11.8109V11.9952C55.4475 13.1623 55.7198 14.0222 56.2644 14.575C56.8246 15.1278 57.6493 15.4042 58.7385 15.4042C59.112 15.4042 59.5399 15.3582 60.0223 15.266C60.5046 15.1739 60.9559 15.028 61.376 14.8284C61.7339 14.6595 62.0529 14.6057 62.333 14.6671C62.6131 14.7132 62.8309 14.8361 62.9865 15.0357C63.1421 15.2353 63.2277 15.4656 63.2433 15.7267C63.2744 15.9878 63.2199 16.2488 63.0799 16.5099C62.9398 16.7556 62.7064 16.9629 62.3797 17.1318C61.8506 17.4235 61.2515 17.6385 60.5824 17.7767C59.9289 17.9303 59.2909 18.0071 58.6685 18.0071Z" fill="white"/>
<path d="M69.9147 18.0071C69.23 18.0071 68.522 17.9456 67.7907 17.8228C67.0749 17.6999 66.4214 17.4926 65.8301 17.2009C65.5189 17.0473 65.2932 16.8554 65.1532 16.625C65.0287 16.3793 64.9742 16.1336 64.9898 15.8879C65.0054 15.6422 65.0832 15.4196 65.2232 15.22C65.3788 15.0203 65.5733 14.8898 65.8067 14.8284C66.0557 14.7516 66.328 14.7746 66.6236 14.8975C67.2616 15.1585 67.8451 15.3428 68.3742 15.4503C68.9033 15.5578 69.4245 15.6115 69.938 15.6115C70.6071 15.6115 71.0895 15.5117 71.3851 15.3121C71.6964 15.0971 71.852 14.8207 71.852 14.4829C71.852 14.1757 71.7508 13.9454 71.5485 13.7918C71.3462 13.6383 71.0506 13.5308 70.6616 13.4694L68.2108 13.0317C67.2461 12.8628 66.4992 12.5173 65.9701 11.9952C65.4566 11.4577 65.1999 10.7744 65.1999 9.94517C65.1999 9.17737 65.4177 8.51707 65.8534 7.96425C66.2891 7.39608 66.8882 6.96611 67.6506 6.67435C68.4287 6.36723 69.3078 6.21367 70.2881 6.21367C70.9883 6.21367 71.6341 6.27509 72.2254 6.39794C72.8167 6.52079 73.3847 6.72042 73.9293 6.99683C74.2094 7.13503 74.4039 7.3193 74.5128 7.54964C74.6373 7.77998 74.6762 8.018 74.6295 8.26369C74.5984 8.50939 74.505 8.73205 74.3494 8.93168C74.1938 9.13131 73.9915 9.26183 73.7425 9.32326C73.5091 9.38468 73.2368 9.35397 72.9256 9.23112C72.4277 9.00078 71.9687 8.83954 71.5485 8.74741C71.1284 8.63992 70.7238 8.58617 70.3348 8.58617C69.6346 8.58617 69.1289 8.70134 68.8177 8.93168C68.5065 9.14666 68.3509 9.42307 68.3509 9.7609C68.3509 10.022 68.4364 10.2446 68.6076 10.4289C68.7943 10.5978 69.0744 10.713 69.4479 10.7744L71.8986 11.212C72.9101 11.381 73.6803 11.7188 74.2094 12.2255C74.7384 12.7169 75.0029 13.3926 75.0029 14.2525C75.0029 15.4196 74.5361 16.3409 73.6025 17.0166C72.6844 17.6769 71.4552 18.0071 69.9147 18.0071Z" fill="white"/>
<path d="M81.4026 18.0071C80.718 18.0071 80.01 17.9456 79.2787 17.8228C78.5629 17.6999 77.9093 17.4926 77.318 17.2009C77.0068 17.0473 76.7812 16.8554 76.6412 16.625C76.5167 16.3793 76.4622 16.1336 76.4778 15.8879C76.4933 15.6422 76.5711 15.4196 76.7112 15.22C76.8668 15.0203 77.0613 14.8898 77.2947 14.8284C77.5437 14.7516 77.816 14.7746 78.1116 14.8975C78.7496 15.1585 79.3331 15.3428 79.8622 15.4503C80.3912 15.5578 80.9125 15.6115 81.426 15.6115C82.0951 15.6115 82.5775 15.5117 82.8731 15.3121C83.1843 15.0971 83.3399 14.8207 83.3399 14.4829C83.3399 14.1757 83.2388 13.9454 83.0365 13.7918C82.8342 13.6383 82.5386 13.5308 82.1496 13.4694L79.6988 13.0317C78.734 12.8628 77.9871 12.5173 77.4581 11.9952C76.9446 11.4577 76.6878 10.7744 76.6878 9.94517C76.6878 9.17737 76.9057 8.51707 77.3414 7.96425C77.7771 7.39608 78.3761 6.96611 79.1386 6.67435C79.9166 6.36723 80.7958 6.21367 81.7761 6.21367C82.4763 6.21367 83.1221 6.27509 83.7134 6.39794C84.3047 6.52079 84.8726 6.72042 85.4172 6.99683C85.6973 7.13503 85.8918 7.3193 86.0007 7.54964C86.1252 7.77998 86.1641 8.018 86.1175 8.26369C86.0863 8.50939 85.993 8.73205 85.8374 8.93168C85.6818 9.13131 85.4795 9.26183 85.2305 9.32326C84.9971 9.38468 84.7248 9.35397 84.4136 9.23112C83.9157 9.00078 83.4566 8.83954 83.0365 8.74741C82.6164 8.63992 82.2118 8.58617 81.8228 8.58617C81.1226 8.58617 80.6169 8.70134 80.3056 8.93168C79.9944 9.14666 79.8388 9.42307 79.8388 9.7609C79.8388 10.022 79.9244 10.2446 80.0956 10.4289C80.2823 10.5978 80.5624 10.713 80.9358 10.7744L83.3866 11.212C84.398 11.381 85.1683 11.7188 85.6973 12.2255C86.2264 12.7169 86.4909 13.3926 86.4909 14.2525C86.4909 15.4196 86.0241 16.3409 85.0905 17.0166C84.1724 17.6769 82.9431 18.0071 81.4026 18.0071Z" fill="white"/>
<path d="M90.2765 17.938C89.7007 17.938 89.2573 17.7767 88.9461 17.4542C88.6504 17.1164 88.5026 16.6481 88.5026 16.0492V8.17156C88.5026 7.55732 88.6504 7.08896 88.9461 6.76649C89.2573 6.42865 89.7007 6.25974 90.2765 6.25974C90.8366 6.25974 91.2646 6.42865 91.5602 6.76649C91.8714 7.08896 92.027 7.55732 92.027 8.17156V16.0492C92.027 16.6481 91.8792 17.1164 91.5835 17.4542C91.2879 17.7767 90.8522 17.938 90.2765 17.938ZM90.2765 4.37095C89.6229 4.37095 89.1172 4.22507 88.7593 3.93331C88.417 3.62619 88.2458 3.19622 88.2458 2.6434C88.2458 2.07523 88.417 1.64527 88.7593 1.3535C89.1172 1.04638 89.6229 0.892822 90.2765 0.892822C90.93 0.892822 91.4279 1.04638 91.7703 1.3535C92.1126 1.64527 92.2838 2.07523 92.2838 2.6434C92.2838 3.19622 92.1126 3.62619 91.7703 3.93331C91.4279 4.22507 90.93 4.37095 90.2765 4.37095Z" fill="white"/>
<path d="M97.4089 17.961C96.8331 17.961 96.3896 17.8074 96.0784 17.5003C95.7828 17.1932 95.635 16.7555 95.635 16.1874V9.04685H94.7947C94.359 9.04685 94.0167 8.93168 93.7677 8.70134C93.5343 8.471 93.4176 8.1562 93.4176 7.75695C93.4176 7.32698 93.5343 7.0045 93.7677 6.78952C94.0167 6.55918 94.359 6.44401 94.7947 6.44401H96.6619L95.635 7.36537V6.65132C95.635 5.00822 96.0473 3.77975 96.872 2.96588C97.7123 2.15201 98.9416 1.66062 100.56 1.49171L101.307 1.4226C101.711 1.39189 102.03 1.45332 102.264 1.60688C102.513 1.76044 102.676 1.96006 102.754 2.20576C102.832 2.45146 102.847 2.70483 102.801 2.96588C102.754 3.21158 102.645 3.43424 102.474 3.63387C102.318 3.81814 102.1 3.91795 101.82 3.93331L101.493 3.95634C100.653 4.01777 100.054 4.21739 99.6962 4.55522C99.3383 4.8777 99.1594 5.37677 99.1594 6.05243V6.83559L98.7159 6.44401H100.817C101.268 6.44401 101.61 6.55918 101.844 6.78952C102.077 7.0045 102.194 7.32698 102.194 7.75695C102.194 8.1562 102.077 8.471 101.844 8.70134C101.61 8.93168 101.268 9.04685 100.817 9.04685H99.1594V16.1874C99.1594 17.3698 98.5759 17.961 97.4089 17.961Z" fill="white"/>
<path d="M106.514 22.1071C106.11 22.1071 105.775 21.9996 105.511 21.7846C105.246 21.5696 105.091 21.2856 105.044 20.9324C104.997 20.5945 105.06 20.2337 105.231 19.8498L106.795 16.4408V17.8689L102.663 8.51707C102.508 8.11781 102.453 7.74927 102.5 7.41144C102.562 7.05825 102.733 6.78184 103.013 6.58221C103.309 6.36723 103.714 6.25974 104.227 6.25974C104.647 6.25974 104.982 6.35955 105.231 6.55918C105.495 6.74345 105.736 7.10432 105.954 7.64178L108.708 14.552H107.962L110.809 7.61874C111.027 7.09664 111.268 6.74345 111.533 6.55918C111.813 6.35955 112.186 6.25974 112.653 6.25974C113.058 6.25974 113.377 6.36723 113.61 6.58221C113.859 6.78184 114.007 7.05057 114.053 7.3884C114.116 7.72623 114.053 8.09478 113.867 8.49403L108.382 20.7711C108.148 21.2932 107.884 21.6464 107.588 21.8307C107.308 22.015 106.95 22.1071 106.514 22.1071Z" fill="white"/>
</svg>
