<svg width="48" height="49" viewBox="0 0 48 49" fill="none" xmlns="http://www.w3.org/2000/svg">
<path fill-rule="evenodd" clip-rule="evenodd" d="M6.18934 6.68934C8.85828 4.0204 12.8521 3 18 3H30C35.1479 3 39.1417 4.0204 41.8107 6.68934C44.4796 9.35828 45.5 13.3521 45.5 18.5V30.5C45.5 35.6479 44.4796 39.6417 41.8107 42.3107C39.1417 44.9796 35.1479 46 30 46H18C12.8521 46 8.85828 44.9796 6.18934 42.3107C3.5204 39.6417 2.5 35.6479 2.5 30.5V18.5C2.5 13.3521 3.5204 9.35828 6.18934 6.68934ZM8.31066 8.81066C6.4796 10.6417 5.5 13.6479 5.5 18.5V30.5C5.5 35.3521 6.4796 38.3583 8.31066 40.1893C10.1417 42.0204 13.1479 43 18 43H30C34.8521 43 37.8583 42.0204 39.6893 40.1893C41.5204 38.3583 42.5 35.3521 42.5 30.5V18.5C42.5 13.6479 41.5204 10.6417 39.6893 8.81066C37.8583 6.9796 34.8521 6 30 6H18C13.1479 6 10.1417 6.9796 8.31066 8.81066Z" fill="#4F7EF7"/>
<g opacity="0.4">
<path fill-rule="evenodd" clip-rule="evenodd" d="M24 3C24.8284 3 25.5 3.67157 25.5 4.5V44.5C25.5 45.3284 24.8284 46 24 46C23.1716 46 22.5 45.3284 22.5 44.5V4.5C22.5 3.67157 23.1716 3 24 3Z" fill="#4F7EF7"/>
<path fill-rule="evenodd" clip-rule="evenodd" d="M2.5 19.5C2.5 18.6716 3.17157 18 4 18H24C24.8284 18 25.5 18.6716 25.5 19.5C25.5 20.3284 24.8284 21 24 21H4C3.17157 21 2.5 20.3284 2.5 19.5Z" fill="#4F7EF7"/>
<path fill-rule="evenodd" clip-rule="evenodd" d="M22.5 29.5C22.5 28.6716 23.1716 28 24 28H44C44.8284 28 45.5 28.6716 45.5 29.5C45.5 30.3284 44.8284 31 44 31H24C23.1716 31 22.5 30.3284 22.5 29.5Z" fill="#4F7EF7"/>
</g>
</svg>
