<svg width="48" height="49" viewBox="0 0 48 49" fill="none" xmlns="http://www.w3.org/2000/svg">
<path fill-rule="evenodd" clip-rule="evenodd" d="M7.81066 8.31066C6.37983 9.74149 5.5 11.8409 5.5 14.5V18.5C5.5 19.3284 4.82843 20 4 20C3.17157 20 2.5 19.3284 2.5 18.5V14.5C2.5 11.1591 3.62017 8.25851 5.68934 6.18934C7.75851 4.12017 10.6591 3 14 3H34C37.3409 3 40.2415 4.12017 42.3107 6.18934C44.3798 8.25851 45.5 11.1591 45.5 14.5V18.5C45.5 19.3284 44.8284 20 44 20C43.1716 20 42.5 19.3284 42.5 18.5V14.5C42.5 11.8409 41.6202 9.74149 40.1893 8.31066C38.7585 6.87983 36.6591 6 34 6H14C11.3409 6 9.24149 6.87983 7.81066 8.31066Z" fill="#4F7EF7"/>
<path fill-rule="evenodd" clip-rule="evenodd" d="M4 29C4.82843 29 5.5 29.6716 5.5 30.5V34.5C5.5 37.1591 6.37983 39.2585 7.81066 40.6893C9.24149 42.1202 11.3409 43 14 43H34C36.6591 43 38.7585 42.1202 40.1893 40.6893C41.6202 39.2585 42.5 37.1591 42.5 34.5V30.5C42.5 29.6716 43.1716 29 44 29C44.8284 29 45.5 29.6716 45.5 30.5V34.5C45.5 37.8409 44.3798 40.7415 42.3107 42.8107C40.2415 44.8798 37.3409 46 34 46H14C10.6591 46 7.75851 44.8798 5.68934 42.8107C3.62017 40.7415 2.5 37.8409 2.5 34.5V30.5C2.5 29.6716 3.17157 29 4 29Z" fill="#4F7EF7"/>
<g opacity="0.4">
<path fill-rule="evenodd" clip-rule="evenodd" d="M12.1024 18.2682C12.5177 17.5513 13.4354 17.3068 14.1522 17.7221L24 23.4263L33.768 17.7624C34.4846 17.3469 35.4025 17.591 35.818 18.3076C36.2336 19.0243 35.9895 19.9421 35.2728 20.3577L24.7528 26.4577C24.2877 26.7274 23.7138 26.7275 23.2486 26.458L12.6485 20.318C11.9317 19.9028 11.6872 18.985 12.1024 18.2682Z" fill="#4F7EF7"/>
<path fill-rule="evenodd" clip-rule="evenodd" d="M24 23.64C24.8284 23.64 25.5 24.3116 25.5 25.14V36.04C25.5 36.8685 24.8284 37.54 24 37.54C23.1716 37.54 22.5 36.8685 22.5 36.04V25.14C22.5 24.3116 23.1716 23.64 24 23.64Z" fill="#4F7EF7"/>
<path fill-rule="evenodd" clip-rule="evenodd" d="M27.2337 11.7714L33.6258 15.3271C34.6484 15.8888 35.4847 16.8166 36.0612 17.7975C36.6388 18.7803 37.0405 19.9608 37.0405 21.12V27.9001C37.0405 29.0644 36.6305 30.2462 36.0519 31.2255C35.4735 32.2045 34.6388 33.13 33.6296 33.6909C33.6294 33.691 33.6298 33.6908 33.6296 33.6909L27.2296 37.2508L27.2241 37.2539C26.2582 37.7858 25.0884 38.01 24.003 38.01C22.9189 38.01 21.75 37.7863 20.7896 37.2499C20.7893 37.2497 20.7899 37.2501 20.7896 37.2499L14.3997 33.6955C14.3982 33.6947 14.3967 33.6939 14.3952 33.6931C13.3726 33.1314 12.5363 32.2036 11.9598 31.2226C11.3822 30.2398 10.9805 29.0593 10.9805 27.9001V21.12C10.9805 19.9557 11.3905 18.7739 11.969 17.7946C12.5474 16.8156 13.3821 15.8901 14.3913 15.3292L20.7835 11.7735C21.7456 11.2245 22.9163 10.995 24.003 10.995C25.0924 10.995 26.2655 11.2256 27.2337 11.7714ZM24.003 13.995C23.2881 13.995 22.6629 14.154 22.2667 14.3812L22.2497 14.391L15.8496 17.9509C15.4191 18.1901 14.9334 18.6747 14.5519 19.3205C14.1705 19.9662 13.9805 20.6244 13.9805 21.12V27.9001C13.9805 28.4008 14.1688 29.0604 14.5462 29.7025C14.9238 30.3451 15.4059 30.826 15.8413 31.0646L15.8496 31.0692L22.2522 34.6306C22.6516 34.8538 23.2823 35.01 24.003 35.01C24.7211 35.01 25.3602 34.8548 25.7744 34.6274C25.7752 34.6269 25.776 34.6265 25.7768 34.6261L32.1713 31.0692C32.6018 30.83 33.0875 30.3453 33.469 29.6996C33.8505 29.0539 34.0405 28.3957 34.0405 27.9001V21.12C34.0405 20.6193 33.8522 19.9598 33.4748 19.3176C33.0971 18.675 32.615 18.1941 32.1796 17.9555L32.1713 17.9509L25.7624 14.3859C25.3514 14.1536 24.7167 13.995 24.003 13.995Z" fill="#4F7EF7"/>
</g>
</svg>
