<svg width="48" height="49" viewBox="0 0 48 49" fill="none" xmlns="http://www.w3.org/2000/svg">
<path fill-rule="evenodd" clip-rule="evenodd" d="M30.9127 5.0303C33.2302 2.38498 37.58 4.04323 37.58 7.53995V20.4399H42.26C45.5467 20.4399 47.3014 24.2989 45.126 26.7709L45.1259 26.771L29.9888 43.9677C29.9884 43.9681 29.9881 43.9686 29.9877 43.969C27.6704 46.6152 23.32 44.9569 23.32 41.4599V28.5599H18.64C15.3604 28.5599 13.6339 24.6982 15.7665 22.2376L15.774 22.2288L15.7741 22.2289L30.9111 5.03219C30.9116 5.03156 30.9122 5.03093 30.9127 5.0303ZM34.58 7.53995C34.58 6.79749 33.6518 6.4557 33.1688 7.0077L33.1659 7.01103L18.0307 24.2057C17.5677 24.7451 17.961 25.5599 18.64 25.5599H24.82C25.6484 25.5599 26.32 26.2315 26.32 27.0599V41.4599C26.32 42.2024 27.2481 42.5442 27.7311 41.9922L27.734 41.9889L42.8739 24.789C42.874 24.789 42.874 24.7889 42.874 24.7889C43.3385 24.2609 42.9732 23.4399 42.26 23.4399H36.08C35.2516 23.4399 34.58 22.7684 34.58 21.9399V7.53995Z" fill="#4F7EF7"/>
<path opacity="0.4" fill-rule="evenodd" clip-rule="evenodd" d="M1.5 8.5C1.5 7.67157 2.17157 7 3 7H17C17.8284 7 18.5 7.67157 18.5 8.5C18.5 9.32843 17.8284 10 17 10H3C2.17157 10 1.5 9.32843 1.5 8.5Z" fill="#4F7EF7"/>
<path opacity="0.4" fill-rule="evenodd" clip-rule="evenodd" d="M1.5 40.5C1.5 39.6716 2.17157 39 3 39H15C15.8284 39 16.5 39.6716 16.5 40.5C16.5 41.3284 15.8284 42 15 42H3C2.17157 42 1.5 41.3284 1.5 40.5Z" fill="#4F7EF7"/>
<path opacity="0.4" fill-rule="evenodd" clip-rule="evenodd" d="M1.5 24.5C1.5 23.6716 2.17157 23 3 23H9C9.82843 23 10.5 23.6716 10.5 24.5C10.5 25.3284 9.82843 26 9 26H3C2.17157 26 1.5 25.3284 1.5 24.5Z" fill="#4F7EF7"/>
</svg>
