<svg width="48" height="49" viewBox="0 0 48 49" fill="none" xmlns="http://www.w3.org/2000/svg">
<path fill-rule="evenodd" clip-rule="evenodd" d="M31.3855 18.1713C31.4566 17.346 32.1833 16.7345 33.0087 16.8055C36.8326 17.1348 39.8275 18.3107 41.8148 20.7599C43.7685 23.1677 44.52 26.5327 44.52 30.72V30.98C44.52 35.5984 43.6044 39.2219 41.1732 41.6532C38.7419 44.0844 35.1183 45 30.5 45H17.48C12.8616 45 9.23809 44.0844 6.80683 41.6532C4.37557 39.2219 3.45999 35.5984 3.45999 30.98V30.72C3.45999 26.5631 4.2014 23.2183 6.12369 20.8155C8.08066 18.3693 11.0319 17.1778 14.8008 16.8265C15.6256 16.7496 16.3566 17.3559 16.4335 18.1808C16.5104 19.0056 15.9041 19.7366 15.0792 19.8135C11.7681 20.1222 9.72933 21.1108 8.46629 22.6896C7.16858 24.3117 6.45999 26.8369 6.45999 30.72V30.98C6.45999 35.3017 7.33442 37.9381 8.92815 39.5319C10.5219 41.1256 13.1583 42 17.48 42H30.5C34.8216 42 37.4581 41.1256 39.0518 39.5319C40.6456 37.9381 41.52 35.3017 41.52 30.98V30.72C41.52 26.8074 40.8015 24.2724 39.4852 22.6501C38.2025 21.0693 36.1274 20.0852 32.7513 19.7945C31.9259 19.7234 31.3145 18.9967 31.3855 18.1713Z" fill="#4F7EF7"/>
<g opacity="0.4">
<path fill-rule="evenodd" clip-rule="evenodd" d="M24 6.24023C24.8284 6.24023 25.5 6.91181 25.5 7.74023V30.5002C25.5 31.3287 24.8284 32.0002 24 32.0002C23.1716 32.0002 22.5 31.3287 22.5 30.5002V7.74023C22.5 6.91181 23.1716 6.24023 24 6.24023Z" fill="#4F7EF7"/>
<path fill-rule="evenodd" clip-rule="evenodd" d="M22.9401 4.43934C23.5259 3.85355 24.4757 3.85355 25.0614 4.43934L31.7614 11.1393C32.3472 11.7251 32.3472 12.6749 31.7614 13.2607C31.1757 13.8464 30.2259 13.8464 29.6401 13.2607L24.0008 7.62132L18.3614 13.2607C17.7757 13.8464 16.8259 13.8464 16.2401 13.2607C15.6543 12.6749 15.6543 11.7251 16.2401 11.1393L22.9401 4.43934Z" fill="#4F7EF7"/>
</g>
</svg>
