<svg width="48" height="49" viewBox="0 0 48 49" fill="none" xmlns="http://www.w3.org/2000/svg">
<path opacity="0.4" fill-rule="evenodd" clip-rule="evenodd" d="M23.24 18.26C23.24 17.4316 23.9116 16.76 24.74 16.76H35.24C36.0684 16.76 36.74 17.4316 36.74 18.26C36.74 19.0884 36.0684 19.76 35.24 19.76H24.74C23.9116 19.76 23.24 19.0884 23.24 18.26Z" fill="#4F7EF7"/>
<path opacity="0.4" fill-rule="evenodd" clip-rule="evenodd" d="M19.8207 14.1993C20.4065 14.7851 20.4065 15.7349 19.8207 16.3207L15.3207 20.8207C14.7349 21.4065 13.7851 21.4065 13.1993 20.8207L11.6993 19.3207C11.1136 18.7349 11.1136 17.7851 11.6993 17.1993C12.2851 16.6136 13.2349 16.6136 13.8207 17.1993L14.26 17.6387L17.6993 14.1993C18.2851 13.6136 19.2349 13.6136 19.8207 14.1993Z" fill="#4F7EF7"/>
<path opacity="0.4" fill-rule="evenodd" clip-rule="evenodd" d="M23.24 32.26C23.24 31.4316 23.9116 30.76 24.74 30.76H35.24C36.0684 30.76 36.74 31.4316 36.74 32.26C36.74 33.0884 36.0684 33.76 35.24 33.76H24.74C23.9116 33.76 23.24 33.0884 23.24 32.26Z" fill="#4F7EF7"/>
<path opacity="0.4" fill-rule="evenodd" clip-rule="evenodd" d="M19.8207 28.1993C20.4065 28.7851 20.4065 29.7349 19.8207 30.3207L15.3207 34.8207C14.7349 35.4065 13.7851 35.4065 13.1994 34.8207L11.6994 33.3207C11.1136 32.7349 11.1136 31.7851 11.6993 31.1994C12.2851 30.6136 13.2349 30.6136 13.8207 31.1993L14.26 31.6387L17.6993 28.1993C18.2851 27.6136 19.2349 27.6136 19.8207 28.1993Z" fill="#4F7EF7"/>
<path fill-rule="evenodd" clip-rule="evenodd" d="M6.18934 6.68934C8.85828 4.0204 12.8521 3 18 3H30C35.1479 3 39.1417 4.0204 41.8107 6.68934C44.4796 9.35828 45.5 13.3521 45.5 18.5V30.5C45.5 35.6479 44.4796 39.6417 41.8107 42.3107C39.1417 44.9796 35.1479 46 30 46H18C12.8521 46 8.85828 44.9796 6.18934 42.3107C3.5204 39.6417 2.5 35.6479 2.5 30.5V18.5C2.5 13.3521 3.5204 9.35828 6.18934 6.68934ZM8.31066 8.81066C6.4796 10.6417 5.5 13.6479 5.5 18.5V30.5C5.5 35.3521 6.4796 38.3583 8.31066 40.1893C10.1417 42.0204 13.1479 43 18 43H30C34.8521 43 37.8583 42.0204 39.6893 40.1893C41.5204 38.3583 42.5 35.3521 42.5 30.5V18.5C42.5 13.6479 41.5204 10.6417 39.6893 8.81066C37.8583 6.9796 34.8521 6 30 6H18C13.1479 6 10.1417 6.9796 8.31066 8.81066Z" fill="#4F7EF7"/>
</svg>
