<svg width="48" height="49" viewBox="0 0 48 49" fill="none" xmlns="http://www.w3.org/2000/svg">
<path fill-rule="evenodd" clip-rule="evenodd" d="M7.26707 6.47936C6.26498 7.08953 5.43945 8.42135 5.43945 10.6807V40.3607C5.43945 41.7844 6.63974 43.0007 8.15945 43.0007H23.4995V15.3207C23.4995 14.6095 23.2239 13.7285 22.7005 12.898C22.1776 12.0684 21.4952 11.4287 20.8399 11.1079L11.9599 6.74791C11.9597 6.74782 11.9601 6.748 11.9599 6.74791C9.87975 5.72974 8.27643 5.86476 7.26707 6.47936ZM5.70684 3.917C7.84239 2.61665 10.5794 2.73191 13.279 4.05345L22.159 8.41347C22.1588 8.41338 22.1592 8.41357 22.159 8.41347C23.4235 9.0327 24.4914 10.1131 25.2384 11.2984C25.985 12.4829 26.4995 13.9119 26.4995 15.3207V44.5007C26.4995 45.3291 25.8279 46.0007 24.9995 46.0007H8.15945C5.03917 46.0007 2.43945 43.497 2.43945 40.3607V10.6807C2.43945 7.70001 3.56393 5.22182 5.70684 3.917Z" fill="#4F7EF7"/>
<path fill-rule="evenodd" clip-rule="evenodd" d="M24.0556 20.1749C24.4074 19.8901 24.8689 19.7794 25.3116 19.8736L26.268 20.077L35.2641 22.0963L35.2679 22.0971L39.3213 22.9957C39.3208 22.9955 39.3218 22.9958 39.3213 22.9957C40.7742 23.315 42.2961 23.8886 43.4696 25.072C44.6622 26.2748 45.3329 27.9396 45.4159 30.112C45.44 30.3129 45.4397 30.4928 45.4395 30.5963C45.4395 30.605 45.4394 30.6131 45.4394 30.6207V38.1807C45.4394 40.5429 44.8948 42.5867 43.4601 44.0214C42.0255 45.456 39.9816 46.0007 37.6194 46.0007H24.9995C24.171 46.0007 23.4995 45.3291 23.4995 44.5007V21.3407C23.4995 20.8881 23.7038 20.4597 24.0556 20.1749ZM26.4995 23.2037L34.611 25.0243L34.6148 25.0252L38.6748 25.9252L38.6776 25.9258C39.8642 26.1865 40.7432 26.5832 41.3393 27.1844C41.9017 27.7516 42.3693 28.66 42.4202 30.2876C42.4221 30.3501 42.428 30.4124 42.4377 30.4741C42.4378 30.4763 42.438 30.4793 42.4381 30.4832C42.4386 30.4942 42.439 30.5099 42.4392 30.5334L42.4394 30.6207V38.1807C42.4394 40.1386 41.9841 41.2547 41.3388 41.9001C40.6934 42.5454 39.5773 43.0007 37.6194 43.0007H26.4995V23.2037Z" fill="#4F7EF7"/>
<path opacity="0.4" fill-rule="evenodd" clip-rule="evenodd" d="M9.49945 18.5007C9.49945 17.6722 10.171 17.0007 10.9995 17.0007H17.9395C18.7679 17.0007 19.4395 17.6722 19.4395 18.5007C19.4395 19.3291 18.7679 20.0007 17.9395 20.0007H10.9995C10.171 20.0007 9.49945 19.3291 9.49945 18.5007Z" fill="#4F7EF7"/>
<path opacity="0.4" fill-rule="evenodd" clip-rule="evenodd" d="M9.49945 26.5007C9.49945 25.6722 10.171 25.0007 10.9995 25.0007H17.9395C18.7679 25.0007 19.4395 25.6722 19.4395 26.5007C19.4395 27.3291 18.7679 28.0007 17.9395 28.0007H10.9995C10.171 28.0007 9.49945 27.3291 9.49945 26.5007Z" fill="#4F7EF7"/>
<path fill-rule="evenodd" clip-rule="evenodd" d="M25.0021 20.3697C25.3577 20.085 25.8235 19.9774 26.2679 20.0771L35.2679 22.0971C35.9528 22.2508 36.4395 22.8589 36.4395 23.5607V30.0007C36.4395 33.3091 33.7479 36.0007 30.4395 36.0007C27.131 36.0007 24.4395 33.3091 24.4395 30.0007V21.5407C24.4395 21.0852 24.6465 20.6543 25.0021 20.3697ZM27.4395 23.4147V30.0007C27.4395 31.6523 28.7879 33.0007 30.4395 33.0007C32.091 33.0007 33.4395 31.6523 33.4395 30.0007V24.7614L27.4395 23.4147Z" fill="#4F7EF7"/>
<path fill-rule="evenodd" clip-rule="evenodd" d="M34.0006 22.3909C34.3553 22.1062 34.82 21.9978 35.2641 22.0962L39.3213 22.9956C39.3218 22.9957 39.3223 22.9958 39.3227 22.9959C40.7757 23.3153 42.2961 23.8886 43.4696 25.072C44.6772 26.2898 45.3496 27.9813 45.4187 30.1938C45.42 30.2348 45.4196 30.2759 45.4175 30.3169C45.2574 33.4659 42.647 36.0007 39.4395 36.0007C36.131 36.0007 33.4395 33.3091 33.4395 30.0007V23.5607C33.4395 23.1058 33.6458 22.6756 34.0006 22.3909ZM36.4395 25.4296V30.0007C36.4395 31.6523 37.7879 33.0007 39.4395 33.0007C41.0124 33.0007 42.3094 31.7663 42.4179 30.2221C42.3567 28.6356 41.8942 27.7439 41.3393 27.1844C40.7432 26.5832 39.8642 26.1864 38.6776 25.9257L38.6748 25.9251L38.6748 25.9251L36.4395 25.4296Z" fill="#4F7EF7"/>
</svg>
